<svg width="95" height="29" viewBox="0 0 95 29" fill="none" xmlns="http://www.w3.org/2000/svg">
<path d="M0 5C0 2.23858 2.23858 0 5 0H73.6796C74.727 0 75.748 0.328919 76.5984 0.940336L89.4808 10.2023C92.2188 12.1709 92.2628 16.2299 89.5682 18.2574L76.6257 27.9954C75.7591 28.6474 74.704 29 73.6195 29H4.99999C2.23857 29 0 26.7614 0 24V5Z" fill="#45B99D"/>
<path d="M15.6562 19.1719C14.8281 19.1719 14.1068 18.987 13.4922 18.6172C12.8828 18.2474 12.4141 17.7318 12.0859 17.0703C11.7578 16.4089 11.5938 15.651 11.5938 14.7969C11.5938 13.9375 11.7604 13.1771 12.0938 12.5156C12.4271 11.849 12.8984 11.3307 13.5078 10.9609C14.1224 10.5911 14.8385 10.4062 15.6562 10.4062C16.3385 10.4062 16.9453 10.5312 17.4766 10.7812C18.013 11.0312 18.4375 11.3854 18.75 11.8438C19.0677 12.3021 19.25 12.8333 19.2969 13.4375H17.3906C17.3073 13.0104 17.1172 12.6641 16.8203 12.3984C16.5234 12.1328 16.1406 12 15.6719 12C15.2604 12 14.8984 12.112 14.5859 12.3359C14.2786 12.5547 14.0391 12.8724 13.8672 13.2891C13.6953 13.7005 13.6094 14.1875 13.6094 14.75C13.6094 15.3281 13.6927 15.8281 13.8594 16.25C14.0312 16.6667 14.2708 16.987 14.5781 17.2109C14.8906 17.4349 15.2552 17.5469 15.6719 17.5469C16.1198 17.5469 16.4974 17.4219 16.8047 17.1719C17.112 16.9219 17.3073 16.5677 17.3906 16.1094H19.2969C19.2448 16.7083 19.0625 17.2396 18.75 17.7031C18.4427 18.1667 18.0234 18.5286 17.4922 18.7891C16.9609 19.0443 16.349 19.1719 15.6562 19.1719ZM24.5 19.1719C23.6875 19.1719 22.974 18.9896 22.3594 18.625C21.7448 18.2604 21.2708 17.75 20.9375 17.0938C20.6042 16.4323 20.4375 15.6667 20.4375 14.7969C20.4375 13.9219 20.6042 13.1536 20.9375 12.4922C21.2708 11.8307 21.7448 11.3177 22.3594 10.9531C22.974 10.5885 23.6875 10.4062 24.5 10.4062C25.3177 10.4062 26.0339 10.5885 26.6484 10.9531C27.263 11.3177 27.7344 11.8307 28.0625 12.4922C28.3958 13.1536 28.5625 13.9219 28.5625 14.7969C28.5625 15.6667 28.3958 16.4323 28.0625 17.0938C27.7292 17.7552 27.2552 18.2682 26.6406 18.6328C26.0312 18.9922 25.3177 19.1719 24.5 19.1719ZM24.5156 17.5781C24.9531 17.5781 25.3229 17.4557 25.625 17.2109C25.9323 16.9661 26.1615 16.6328 26.3125 16.2109C26.4688 15.7891 26.5469 15.3125 26.5469 14.7812C26.5469 14.2552 26.4688 13.7812 26.3125 13.3594C26.1615 12.9323 25.9323 12.5964 25.625 12.3516C25.3229 12.1068 24.9531 11.9844 24.5156 11.9844C24.0677 11.9844 23.6875 12.1068 23.375 12.3516C23.0677 12.5964 22.8359 12.9297 22.6797 13.3516C22.5286 13.7734 22.4531 14.25 22.4531 14.7812C22.4531 15.3125 22.5286 15.7891 22.6797 16.2109C22.8359 16.6328 23.0677 16.9661 23.375 17.2109C23.6875 17.4557 24.0677 17.5781 24.5156 17.5781ZM32.1094 19H30.1094V10.5156H32.0156V11.9531H32.125C32.3229 11.4635 32.6354 11.0833 33.0625 10.8125C33.4948 10.5417 34.0208 10.4062 34.6406 10.4062C35.2292 10.4062 35.7422 10.5312 36.1797 10.7812C36.6224 11.0312 36.9609 11.3958 37.1953 11.875C37.4349 12.3542 37.5521 12.9271 37.5469 13.5938V19H35.5625V13.9062C35.5625 13.3333 35.4167 12.888 35.125 12.5703C34.8333 12.2526 34.4271 12.0938 33.9062 12.0938C33.5521 12.0938 33.2396 12.1719 32.9688 12.3281C32.6979 12.4792 32.487 12.7005 32.3359 12.9922C32.1849 13.2786 32.1094 13.625 32.1094 14.0312V19ZM43.6875 12.0469H42.0156V16.4531C42.0156 16.8281 42.0938 17.0859 42.25 17.2266C42.4115 17.3672 42.6354 17.4375 42.9219 17.4375C43.1719 17.4375 43.4635 17.4271 43.7969 17.4062V19.0312C43.5365 19.0833 43.1615 19.1094 42.6719 19.1094C42.1562 19.1094 41.6979 19.026 41.2969 18.8594C40.901 18.6875 40.5885 18.4271 40.3594 18.0781C40.1354 17.7292 40.026 17.2969 40.0312 16.7812V12.0469H38.8125V10.5156H40.0312V8.48438H42.0156V10.5156H43.6875V12.0469ZM45.2188 10.5156H47.2188V19H45.2188V10.5156ZM46.2344 9.3125C46.0312 9.3125 45.8385 9.26562 45.6562 9.17188C45.4792 9.07292 45.3385 8.9401 45.2344 8.77344C45.1302 8.60156 45.0781 8.41667 45.0781 8.21875C45.0781 8.02604 45.1302 7.84635 45.2344 7.67969C45.3385 7.51302 45.4792 7.38281 45.6562 7.28906C45.8385 7.1901 46.0312 7.14062 46.2344 7.14062C46.4427 7.14062 46.6354 7.1901 46.8125 7.28906C46.9896 7.38281 47.1302 7.51302 47.2344 7.67969C47.3385 7.84635 47.3906 8.02604 47.3906 8.21875C47.3906 8.41667 47.3385 8.60156 47.2344 8.77344C47.1302 8.9401 46.9896 9.07292 46.8125 9.17188C46.6354 9.26562 46.4427 9.3125 46.2344 9.3125ZM51.125 19H49.125V10.5156H51.0312V11.9531H51.1406C51.3385 11.4635 51.651 11.0833 52.0781 10.8125C52.5104 10.5417 53.0365 10.4062 53.6562 10.4062C54.2448 10.4062 54.7578 10.5312 55.1953 10.7812C55.638 11.0312 55.9766 11.3958 56.2109 11.875C56.4505 12.3542 56.5677 12.9271 56.5625 13.5938V19H54.5781V13.9062C54.5781 13.3333 54.4323 12.888 54.1406 12.5703C53.849 12.2526 53.4427 12.0938 52.9219 12.0938C52.5677 12.0938 52.2552 12.1719 51.9844 12.3281C51.7135 12.4792 51.5026 12.7005 51.3516 12.9922C51.2005 13.2786 51.125 13.625 51.125 14.0312V19ZM63.8906 10.5156H65.875V19H63.9531V17.5H63.8594C63.6562 17.9896 63.3333 18.3802 62.8906 18.6719C62.4531 18.9635 61.9271 19.1094 61.3125 19.1094C60.7552 19.1094 60.263 18.9844 59.8359 18.7344C59.4089 18.4844 59.0755 18.1198 58.8359 17.6406C58.5964 17.1615 58.474 16.5885 58.4688 15.9219V10.5156H60.4688V15.6094C60.4688 15.9635 60.5339 16.276 60.6641 16.5469C60.7995 16.8125 60.987 17.0182 61.2266 17.1641C61.4714 17.3047 61.7552 17.375 62.0781 17.375C62.3802 17.375 62.6693 17.3021 62.9453 17.1562C63.2266 17.0052 63.4531 16.7839 63.625 16.4922C63.8021 16.2005 63.8906 15.849 63.8906 15.4375V10.5156ZM71.5469 19.1719C70.7031 19.1719 69.9688 18.9948 69.3438 18.6406C68.724 18.2812 68.2474 17.7734 67.9141 17.1172C67.5859 16.4609 67.4219 15.6927 67.4219 14.8125C67.4219 13.9427 67.5885 13.1771 67.9219 12.5156C68.2552 11.849 68.724 11.3307 69.3281 10.9609C69.9375 10.5911 70.6406 10.4062 71.4375 10.4062C72.1562 10.4062 72.8073 10.5599 73.3906 10.8672C73.9792 11.1745 74.4453 11.651 74.7891 12.2969C75.138 12.9375 75.3125 13.7344 75.3125 14.6875V15.3125H69.3906C69.3958 15.7865 69.4896 16.1979 69.6719 16.5469C69.8542 16.8906 70.1068 17.1536 70.4297 17.3359C70.7526 17.5182 71.1302 17.6094 71.5625 17.6094C71.9844 17.6094 72.3438 17.5286 72.6406 17.3672C72.9375 17.2057 73.151 16.9948 73.2812 16.7344H75.2344C75.1146 17.224 74.888 17.6536 74.5547 18.0234C74.2214 18.388 73.7969 18.6719 73.2812 18.875C72.7708 19.0729 72.1927 19.1719 71.5469 19.1719ZM73.4062 13.9531C73.401 13.5677 73.3177 13.224 73.1562 12.9219C72.9948 12.6198 72.7682 12.3828 72.4766 12.2109C72.1849 12.0391 71.849 11.9531 71.4688 11.9531C71.0781 11.9531 70.7292 12.0443 70.4219 12.2266C70.1198 12.4036 69.8802 12.6458 69.7031 12.9531C69.526 13.2552 69.4245 13.5885 69.3984 13.9531H73.4062Z" fill="white"/>
</svg>
