<svg width="70" height="29" viewBox="0 0 70 29" fill="none" xmlns="http://www.w3.org/2000/svg">
<path d="M0 5C0 2.23858 2.23858 0 5 0H53.442C54.7468 0 55.9999 0.510071 56.9338 1.42132L66.4148 10.6722C68.3938 12.6032 68.4298 15.7738 66.4952 17.7493L56.9477 27.4984C56.0072 28.4588 54.7196 29 53.3754 29H5C2.23858 29 0 26.7614 0 24V5Z" fill="#45B99D"/>
<path d="M12.0469 7.6875H14.0469V11.9062H14.125C14.3385 11.4844 14.6302 11.1302 15 10.8438C15.3698 10.5521 15.8854 10.4062 16.5469 10.4062C17.2135 10.4062 17.8125 10.5755 18.3438 10.9141C18.875 11.2526 19.2943 11.75 19.6016 12.4062C19.9089 13.0625 20.0625 13.849 20.0625 14.7656C20.0625 15.6771 19.9115 16.4635 19.6094 17.125C19.3073 17.7865 18.8906 18.2917 18.3594 18.6406C17.8281 18.9844 17.2292 19.1562 16.5625 19.1562C15.4375 19.1562 14.625 18.6562 14.125 17.6562H14V19H12.0469V7.6875ZM14 14.75C14 15.3021 14.0781 15.7865 14.2344 16.2031C14.3906 16.6198 14.6172 16.9427 14.9141 17.1719C15.2161 17.401 15.5781 17.5156 16 17.5156C16.4323 17.5156 16.7995 17.3984 17.1016 17.1641C17.4089 16.9297 17.6406 16.6042 17.7969 16.1875C17.9531 15.7708 18.0312 15.2917 18.0312 14.75C18.0312 14.2188 17.9531 13.7474 17.7969 13.3359C17.6458 12.9245 17.4167 12.6042 17.1094 12.375C16.8073 12.1458 16.4375 12.0312 16 12.0312C15.5781 12.0312 15.2161 12.1432 14.9141 12.3672C14.6172 12.5911 14.3906 12.9089 14.2344 13.3203C14.0781 13.7266 14 14.2031 14 14.75ZM21.625 10.5156H23.5625V11.9219H23.6562C23.8021 11.4427 24.0651 11.0677 24.4453 10.7969C24.8255 10.526 25.2604 10.3906 25.75 10.3906C26.0417 10.3906 26.2812 10.4062 26.4688 10.4375V12.2812C26.3802 12.25 26.2448 12.2214 26.0625 12.1953C25.8802 12.1693 25.7083 12.1562 25.5469 12.1562C25.1823 12.1562 24.8542 12.2344 24.5625 12.3906C24.2708 12.5469 24.0417 12.7656 23.875 13.0469C23.7083 13.3281 23.625 13.6458 23.625 14V19H21.625V10.5156ZM31.1406 19.1719C30.2969 19.1719 29.5625 18.9948 28.9375 18.6406C28.3177 18.2812 27.8411 17.7734 27.5078 17.1172C27.1797 16.4609 27.0156 15.6927 27.0156 14.8125C27.0156 13.9427 27.1823 13.1771 27.5156 12.5156C27.849 11.849 28.3177 11.3307 28.9219 10.9609C29.5312 10.5911 30.2344 10.4062 31.0312 10.4062C31.75 10.4062 32.401 10.5599 32.9844 10.8672C33.5729 11.1745 34.0391 11.651 34.3828 12.2969C34.7318 12.9375 34.9062 13.7344 34.9062 14.6875V15.3125H28.9844C28.9896 15.7865 29.0833 16.1979 29.2656 16.5469C29.4479 16.8906 29.7005 17.1536 30.0234 17.3359C30.3464 17.5182 30.724 17.6094 31.1562 17.6094C31.5781 17.6094 31.9375 17.5286 32.2344 17.3672C32.5312 17.2057 32.7448 16.9948 32.875 16.7344H34.8281C34.7083 17.224 34.4818 17.6536 34.1484 18.0234C33.8151 18.388 33.3906 18.6719 32.875 18.875C32.3646 19.0729 31.7865 19.1719 31.1406 19.1719ZM33 13.9531C32.9948 13.5677 32.9115 13.224 32.75 12.9219C32.5885 12.6198 32.362 12.3828 32.0703 12.2109C31.7786 12.0391 31.4427 11.9531 31.0625 11.9531C30.6719 11.9531 30.3229 12.0443 30.0156 12.2266C29.7135 12.4036 29.474 12.6458 29.2969 12.9531C29.1198 13.2552 29.0182 13.5885 28.9922 13.9531H33ZM36.0625 16.6094C36.0625 15.7344 36.3568 15.1042 36.9453 14.7188C37.5391 14.3281 38.2969 14.1042 39.2188 14.0469C40.1198 13.9844 40.8438 13.9427 41.3906 13.9219V13.25C41.3906 12.8281 41.2578 12.5026 40.9922 12.2734C40.7266 12.0391 40.349 11.9219 39.8594 11.9219C39.4271 11.9219 39.0729 12.013 38.7969 12.1953C38.5208 12.3776 38.3438 12.625 38.2656 12.9375H36.3438C36.3906 12.4531 36.5625 12.0208 36.8594 11.6406C37.1562 11.2552 37.5651 10.9531 38.0859 10.7344C38.6068 10.5156 39.2135 10.4062 39.9062 10.4062C40.5 10.4062 41.0573 10.5 41.5781 10.6875C42.1042 10.8698 42.5339 11.1797 42.8672 11.6172C43.2057 12.0495 43.375 12.6198 43.375 13.3281V19H41.4688V17.8281H41.4062C41.1979 18.224 40.8854 18.5469 40.4688 18.7969C40.0521 19.0469 39.5312 19.1719 38.9062 19.1719C38.3594 19.1719 37.8698 19.0729 37.4375 18.875C37.0104 18.6771 36.6745 18.3854 36.4297 18C36.1849 17.6146 36.0625 17.151 36.0625 16.6094ZM37.9844 16.5938C37.9844 16.9531 38.1146 17.2292 38.375 17.4219C38.6354 17.6094 38.9844 17.7031 39.4219 17.7031C39.8125 17.7031 40.1589 17.625 40.4609 17.4688C40.763 17.3125 40.9948 17.1016 41.1562 16.8359C41.3229 16.5651 41.4062 16.2708 41.4062 15.9531L41.3984 15.2578L39.5312 15.375C39.0417 15.4167 38.6615 15.5391 38.3906 15.7422C38.1198 15.9453 37.9844 16.2292 37.9844 16.5938ZM45.25 7.6875H47.25V13.9219H47.3906L50.4375 10.5156H52.7656L49.4766 14.1719L52.9688 19H50.5938L47.9844 15.3594L47.25 16.1406V19H45.25V7.6875Z" fill="white"/>
</svg>
