<svg width="32" height="32" viewBox="0 0 32 32" fill="none" xmlns="http://www.w3.org/2000/svg">
<path opacity="0.2" d="M0 16C0 24.8366 7.16344 32 16 32C24.8366 32 32 24.8366 32 16C32 7.16344 24.8366 0 16 0C7.16344 0 0 7.16344 0 16Z" fill="#E0E0E0"/>
<path d="M11.667 10.5977L22.3322 16.0091L11.667 21.4205V10.5977Z" fill="#20232D"/>
<path d="M12.3331 11.6105L16.6659 13.8067L20.9986 16.0029L16.6659 18.1991L12.3331 20.3953V11.6047M11.6666 10.0058C11.32 10.0058 11 10.2518 11 10.5915V21.4143C11 21.754 11.32 22 11.6666 22C11.7799 22 11.8932 21.9766 11.9999 21.918L17.3325 19.2123L22.665 16.5066C23.1117 16.284 23.1117 15.716 22.665 15.4934L17.3325 12.7877L11.9999 10.082C11.8932 10.0293 11.7799 10 11.6666 10V10.0058Z" fill="#20232D"/>
</svg>
