<svg width="16" height="15" viewBox="0 0 16 15" fill="none" xmlns="http://www.w3.org/2000/svg">
<g clip-path="url(#clip0_1629_91)">
<path d="M15.3245 13.939L14.651 13.2655L13.5692 12.1856L15.3132 10.4416C15.5573 10.1972 15.5569 9.80126 15.3125 9.55723C15.2481 9.49295 15.1705 9.44348 15.085 9.41229L9.47652 7.37755C8.82694 7.14276 8.11003 7.47902 7.87524 8.1286C7.77602 8.40314 7.77596 8.70376 7.87506 8.97835L9.91549 14.5869C9.9883 14.7876 10.1585 14.9374 10.367 14.9839C10.4116 14.9936 10.4571 14.9985 10.5027 14.9983C10.6685 14.9983 10.8275 14.9324 10.9448 14.8151L12.6869 13.068L13.7669 14.1479L14.4403 14.8214C14.6888 15.0613 15.0846 15.0544 15.3245 14.806C15.5586 14.5637 15.5586 14.1795 15.3245 13.9372L15.3245 13.939Z" fill="white"/>
<path d="M6.75319 12.5064C3.29966 12.5064 0.5 9.70674 0.5 6.25322C0.5 2.79969 3.29966 0 6.75319 0C10.2067 0 13.0064 2.79966 13.0064 6.25322C13.0064 6.59857 12.7265 6.87853 12.3811 6.87853C12.0357 6.87853 11.7558 6.59857 11.7558 6.25322C11.7558 3.49037 9.51604 1.25065 6.75319 1.25065C3.99034 1.25065 1.75065 3.49037 1.75065 6.25322C1.75065 9.01607 3.99037 11.2558 6.75322 11.2558C7.09857 11.2558 7.37853 11.5357 7.37853 11.8811C7.37853 12.2265 7.09854 12.5064 6.75319 12.5064Z" fill="white"/>
<path d="M5.55524 9.76732C5.47305 9.76738 5.39168 9.75123 5.31573 9.71981C3.40211 8.92499 2.49511 6.72939 3.2899 4.81573C4.08469 2.90208 6.28032 1.99511 8.19395 2.78991C9.11243 3.1714 9.84189 3.90197 10.222 4.82104C10.3594 5.13787 10.214 5.50612 9.8972 5.64356C9.58037 5.781 9.21212 5.63559 9.07468 5.31878C9.07181 5.31216 9.06905 5.30551 9.06641 5.29879C8.53704 4.02282 7.07353 3.41759 5.79759 3.94696C4.52164 4.47633 3.91638 5.93984 4.44576 7.21579C4.69927 7.82685 5.18456 8.31261 5.79539 8.56671C6.11451 8.69876 6.26614 9.06451 6.13406 9.38363C6.03718 9.61775 5.80861 9.77026 5.55527 9.76985L5.55524 9.76732Z" fill="white"/>
</g>
<defs>
<clipPath id="clip0_1629_91">
<rect width="15" height="15" fill="white" transform="translate(0.5)"/>
</clipPath>
</defs>
</svg>
