<svg width="70" height="29" viewBox="0 0 70 29" fill="none" xmlns="http://www.w3.org/2000/svg">
<path d="M0 5C0 2.23858 2.23858 0 5 0H53.442C54.7468 0 55.9999 0.510071 56.9338 1.42132L66.4148 10.6722C68.3938 12.6032 68.4298 15.7738 66.4952 17.7493L56.9477 27.4984C56.0072 28.4588 54.7196 29 53.3754 29H5C2.23858 29 0 26.7614 0 24V5Z" fill="#45B99D"/>
<path d="M11.9531 10.5156H13.9062V11.9062H14.0312C14.2448 11.4896 14.5391 11.1354 14.9141 10.8438C15.2891 10.5521 15.8073 10.4062 16.4688 10.4062C17.1302 10.4062 17.724 10.5755 18.25 10.9141C18.7812 11.2526 19.2005 11.75 19.5078 12.4062C19.8151 13.0625 19.9688 13.849 19.9688 14.7656C19.9688 15.6771 19.8177 16.4635 19.5156 17.125C19.2135 17.7865 18.7969 18.2917 18.2656 18.6406C17.7396 18.9844 17.1406 19.1562 16.4688 19.1562C15.3438 19.1562 14.5312 18.6562 14.0312 17.6562H13.9531V22.1875H11.9531V10.5156ZM13.9062 14.75C13.9062 15.3021 13.9844 15.7865 14.1406 16.2031C14.2969 16.6198 14.526 16.9427 14.8281 17.1719C15.1302 17.401 15.4948 17.5156 15.9219 17.5156C16.349 17.5156 16.7135 17.3984 17.0156 17.1641C17.3177 16.9297 17.5469 16.6042 17.7031 16.1875C17.8594 15.7708 17.9375 15.2917 17.9375 14.75C17.9375 14.2188 17.8594 13.7474 17.7031 13.3359C17.5521 12.9245 17.3255 12.6042 17.0234 12.375C16.7214 12.1458 16.3542 12.0312 15.9219 12.0312C15.4948 12.0312 15.1302 12.1432 14.8281 12.3672C14.526 12.5911 14.2969 12.9089 14.1406 13.3203C13.9844 13.7266 13.9062 14.2031 13.9062 14.75ZM21.1406 16.6094C21.1406 15.7344 21.4349 15.1042 22.0234 14.7188C22.6172 14.3281 23.375 14.1042 24.2969 14.0469C25.1979 13.9844 25.9219 13.9427 26.4688 13.9219V13.25C26.4688 12.8281 26.3359 12.5026 26.0703 12.2734C25.8047 12.0391 25.4271 11.9219 24.9375 11.9219C24.5052 11.9219 24.151 12.013 23.875 12.1953C23.599 12.3776 23.4219 12.625 23.3438 12.9375H21.4219C21.4688 12.4531 21.6406 12.0208 21.9375 11.6406C22.2344 11.2552 22.6432 10.9531 23.1641 10.7344C23.6849 10.5156 24.2917 10.4062 24.9844 10.4062C25.5781 10.4062 26.1354 10.5 26.6562 10.6875C27.1823 10.8698 27.612 11.1797 27.9453 11.6172C28.2839 12.0495 28.4531 12.6198 28.4531 13.3281V19H26.5469V17.8281H26.4844C26.276 18.224 25.9635 18.5469 25.5469 18.7969C25.1302 19.0469 24.6094 19.1719 23.9844 19.1719C23.4375 19.1719 22.9479 19.0729 22.5156 18.875C22.0885 18.6771 21.7526 18.3854 21.5078 18C21.263 17.6146 21.1406 17.151 21.1406 16.6094ZM23.0625 16.5938C23.0625 16.9531 23.1927 17.2292 23.4531 17.4219C23.7135 17.6094 24.0625 17.7031 24.5 17.7031C24.8906 17.7031 25.237 17.625 25.5391 17.4688C25.8411 17.3125 26.0729 17.1016 26.2344 16.8359C26.401 16.5651 26.4844 16.2708 26.4844 15.9531L26.4766 15.2578L24.6094 15.375C24.1198 15.4167 23.7396 15.5391 23.4688 15.7422C23.1979 15.9453 23.0625 16.2292 23.0625 16.5938ZM35.1406 12.9375C35.0781 12.6146 34.9167 12.3594 34.6562 12.1719C34.3958 11.9844 34.0573 11.8906 33.6406 11.8906C33.3594 11.8906 33.1042 11.9349 32.875 12.0234C32.651 12.1068 32.4766 12.2266 32.3516 12.3828C32.2266 12.5339 32.1667 12.7031 32.1719 12.8906C32.1562 13.3438 32.5573 13.6667 33.375 13.8594L34.8125 14.1562C35.6198 14.3385 36.2188 14.6172 36.6094 14.9922C37 15.3672 37.1979 15.8594 37.2031 16.4688C37.1979 17 37.0469 17.4714 36.75 17.8828C36.4531 18.2891 36.0312 18.6068 35.4844 18.8359C34.9427 19.0599 34.3073 19.1719 33.5781 19.1719C32.5104 19.1719 31.6615 18.9453 31.0312 18.4922C30.4062 18.0339 30.0417 17.3958 29.9375 16.5781H31.9688C32.0312 16.9375 32.1979 17.2083 32.4688 17.3906C32.7448 17.5677 33.1146 17.6562 33.5781 17.6562C34.0573 17.6562 34.4427 17.5651 34.7344 17.3828C35.026 17.2005 35.1719 16.9531 35.1719 16.6406C35.1719 16.3958 35.0703 16.1953 34.8672 16.0391C34.6693 15.8776 34.3594 15.75 33.9375 15.6562L32.5781 15.3594C31.7917 15.2031 31.1953 14.9245 30.7891 14.5234C30.388 14.1224 30.1875 13.6146 30.1875 13C30.1875 12.4844 30.3281 12.0312 30.6094 11.6406C30.8906 11.2448 31.2891 10.9401 31.8047 10.7266C32.3203 10.513 32.9219 10.4062 33.6094 10.4062C34.276 10.4062 34.8568 10.5104 35.3516 10.7188C35.8516 10.9219 36.2448 11.2135 36.5312 11.5938C36.8177 11.974 36.9844 12.4219 37.0312 12.9375H35.1406ZM43.5312 12.9375C43.4688 12.6146 43.3073 12.3594 43.0469 12.1719C42.7865 11.9844 42.4479 11.8906 42.0312 11.8906C41.75 11.8906 41.4948 11.9349 41.2656 12.0234C41.0417 12.1068 40.8672 12.2266 40.7422 12.3828C40.6172 12.5339 40.5573 12.7031 40.5625 12.8906C40.5469 13.3438 40.9479 13.6667 41.7656 13.8594L43.2031 14.1562C44.0104 14.3385 44.6094 14.6172 45 14.9922C45.3906 15.3672 45.5885 15.8594 45.5938 16.4688C45.5885 17 45.4375 17.4714 45.1406 17.8828C44.8438 18.2891 44.4219 18.6068 43.875 18.8359C43.3333 19.0599 42.6979 19.1719 41.9688 19.1719C40.901 19.1719 40.0521 18.9453 39.4219 18.4922C38.7969 18.0339 38.4323 17.3958 38.3281 16.5781H40.3594C40.4219 16.9375 40.5885 17.2083 40.8594 17.3906C41.1354 17.5677 41.5052 17.6562 41.9688 17.6562C42.4479 17.6562 42.8333 17.5651 43.125 17.3828C43.4167 17.2005 43.5625 16.9531 43.5625 16.6406C43.5625 16.3958 43.4609 16.1953 43.2578 16.0391C43.0599 15.8776 42.75 15.75 42.3281 15.6562L40.9688 15.3594C40.1823 15.2031 39.5859 14.9245 39.1797 14.5234C38.7786 14.1224 38.5781 13.6146 38.5781 13C38.5781 12.4844 38.7188 12.0312 39 11.6406C39.2812 11.2448 39.6797 10.9401 40.1953 10.7266C40.7109 10.513 41.3125 10.4062 42 10.4062C42.6667 10.4062 43.2474 10.5104 43.7422 10.7188C44.2422 10.9219 44.6354 11.2135 44.9219 11.5938C45.2083 11.974 45.375 12.4219 45.4219 12.9375H43.5312Z" fill="white"/>
</svg>
