<svg width="24" height="24" viewBox="0 0 24 24" fill="none" xmlns="http://www.w3.org/2000/svg">
<path d="M10.9858 17.6945C11.0907 17.799 11.1739 17.9232 11.2307 18.06C11.2875 18.1967 11.3167 18.3433 11.3167 18.4914C11.3167 18.6394 11.2875 18.7861 11.2307 18.9228C11.1739 19.0595 11.0907 19.1837 10.9858 19.2883L10.5058 19.7683C9.99631 20.2797 9.39045 20.685 8.72328 20.9608C8.05612 21.2366 7.3409 21.3775 6.61897 21.3751C5.53178 21.3755 4.46892 21.0534 3.56484 20.4495C2.66077 19.8457 1.95611 18.9872 1.54001 17.9828C1.12392 16.9784 1.01508 15.8732 1.22728 14.8069C1.43947 13.7406 1.96317 12.7612 2.7321 11.9926L5.98991 8.73482C6.68285 8.04198 7.54838 7.54695 8.49689 7.30096C9.4454 7.05498 10.4424 7.06698 11.3847 7.33574C12.3271 7.60449 13.1804 8.12023 13.8565 8.82955C14.5325 9.53887 15.0067 10.416 15.2299 11.3701C15.2669 11.5152 15.2745 11.6662 15.2524 11.8143C15.2303 11.9623 15.1788 12.1045 15.101 12.2324C15.0232 12.3603 14.9207 12.4714 14.7995 12.5592C14.6782 12.647 14.5406 12.7097 14.3948 12.7436C14.249 12.7776 14.0979 12.7821 13.9503 12.7569C13.8027 12.7317 13.6617 12.6773 13.5354 12.5968C13.4091 12.5164 13.3002 12.4116 13.2149 12.2885C13.1297 12.1655 13.0699 12.0266 13.039 11.8801C12.9065 11.3169 12.626 10.7993 12.2265 10.3808C11.827 9.96225 11.323 9.65804 10.7665 9.49957C10.2101 9.3411 9.62137 9.33412 9.06131 9.47937C8.50126 9.62462 7.99016 9.91682 7.58085 10.3258L4.32304 13.5836C3.86892 14.0373 3.55956 14.6155 3.43408 15.2451C3.30861 15.8747 3.37265 16.5273 3.6181 17.1205C3.86356 17.7137 4.27942 18.2207 4.81307 18.5776C5.34672 18.9344 5.9742 19.1249 6.61616 19.1251C7.04271 19.1264 7.46526 19.043 7.85937 18.8798C8.25347 18.7167 8.61128 18.4769 8.9121 18.1745L9.39116 17.6945C9.49569 17.5895 9.61995 17.5061 9.75678 17.4493C9.89361 17.3924 10.0403 17.3631 10.1885 17.3631C10.3367 17.3631 10.4834 17.3924 10.6202 17.4493C10.7571 17.5061 10.8813 17.5895 10.9858 17.6945ZM21.2655 4.23482C20.2344 3.20405 18.8362 2.625 17.3782 2.625C15.9202 2.625 14.522 3.20405 13.4908 4.23482L13.0118 4.71388C12.8004 4.92522 12.6817 5.21187 12.6817 5.51075C12.6817 5.80964 12.8004 6.09628 13.0118 6.30763C13.2231 6.51897 13.5098 6.63771 13.8087 6.63771C14.1075 6.63771 14.3942 6.51897 14.6055 6.30763L15.0855 5.82763C15.6947 5.21846 16.5209 4.87623 17.3824 4.87623C18.2439 4.87623 19.0701 5.21846 19.6793 5.82763C20.2885 6.4368 20.6307 7.26301 20.6307 8.1245C20.6307 8.986 20.2885 9.81221 19.6793 10.4214L16.4158 13.6745C16.115 13.9769 15.7572 14.2167 15.3631 14.3798C14.969 14.543 14.5465 14.6264 14.1199 14.6251C13.3882 14.6246 12.6781 14.3769 12.1048 13.9222C11.5315 13.4675 11.1286 12.8325 10.9615 12.1201C10.8938 11.8295 10.7135 11.5776 10.4602 11.4199C10.2068 11.2622 9.9012 11.2116 9.61054 11.2792C9.31988 11.3468 9.06798 11.5271 8.91028 11.7805C8.75257 12.0338 8.70197 12.3395 8.7696 12.6301C9.05189 13.8366 9.73345 14.9123 10.7037 15.6828C11.6741 16.4533 12.8762 16.8735 14.1152 16.8751H14.1199C14.8422 16.8771 15.5577 16.7359 16.225 16.4596C16.8923 16.1833 17.4982 15.7774 18.0077 15.2654L21.2655 12.0076C21.776 11.4973 22.1809 10.8914 22.4571 10.2246C22.7334 9.55774 22.8756 8.84302 22.8756 8.12122C22.8756 7.39943 22.7334 6.6847 22.4571 6.01787C22.1809 5.35103 21.776 4.74515 21.2655 4.23482Z" fill="#4866FF"/>
</svg>
