<svg width="32" height="32" viewBox="0 0 32 32" fill="none" xmlns="http://www.w3.org/2000/svg">
<path opacity="0.2" d="M32 16C32 7.16344 24.8366 -6.26248e-07 16 -1.39876e-06C7.16345 -2.17128e-06 2.17128e-06 7.16344 1.39876e-06 16C6.26248e-07 24.8366 7.16344 32 16 32C24.8366 32 32 24.8366 32 16Z" fill="#E0E0E0"/>
<path d="M23.5 20.49L15.5008 15.8705L23.5 11.2509L23.5 20.49Z" fill="#20232D"/>
<path d="M23.0001 19.6251L19.7504 17.7503L16.5008 15.8755L19.7504 14.0007L23.0001 12.1259L23.0001 19.6301M23.5001 20.995C23.76 20.995 24 20.785 24 20.4951L24 11.256C24 10.9661 23.76 10.7561 23.5001 10.7561C23.4151 10.7561 23.3301 10.7761 23.2501 10.8261L19.2505 13.1358L15.2509 15.4456C14.9159 15.6356 14.9159 16.1205 15.2509 16.3105L19.2505 18.6203L23.2501 20.93C23.3301 20.975 23.4151 21 23.5001 21L23.5001 20.995Z" fill="#20232D"/>
<path d="M14.498 20.49L6.49888 15.8705L14.498 11.2509L14.498 20.49Z" fill="#20232D"/>
<path d="M13.9982 19.6251L10.7485 17.7503L7.49883 15.8755L10.7485 14.0007L13.9982 12.1259L13.9982 19.6301M14.4981 20.995C14.7581 20.995 14.998 20.785 14.998 20.4951L14.998 11.256C14.998 10.9661 14.7581 10.7561 14.4981 10.7561C14.4131 10.7561 14.3281 10.7761 14.2481 10.8261L10.2485 13.1358L6.24896 15.4456C5.91399 15.6356 5.91399 16.1205 6.24896 16.3105L10.2485 18.6203L14.2481 20.93C14.3281 20.975 14.4131 21 14.4981 21L14.4981 20.995Z" fill="#20232D"/>
</svg>
