<svg width="75" height="29" viewBox="0 0 75 29" fill="none" xmlns="http://www.w3.org/2000/svg">
<path d="M0 5C0 2.23858 2.23858 0 5 0H57.5043C58.7496 0 59.9501 0.464731 60.8709 1.30324L71.032 10.5568C73.1766 12.5099 73.2147 15.8719 71.1149 17.8731L60.8884 27.6195C59.9585 28.5057 58.7233 29 57.4388 29H5C2.23858 29 0 26.7614 0 24V5Z" fill="#45B99D"/>
<path d="M49.8906 14.0312V19H47.8906V10.5156H49.7969V11.9531H49.9062C50.2969 11 51.1562 10.4062 52.4219 10.4062C54.1875 10.4062 55.3438 11.5625 55.3281 13.5938V19H53.3438V13.9062C53.3438 12.7656 52.7344 12.0938 51.6875 12.0938C50.625 12.0938 49.8906 12.7969 49.8906 14.0312Z" fill="white"/>
<path d="M41.8594 19V10.5156H43.7969V11.9219H43.8906C44.1875 10.9531 45.0156 10.3906 45.9844 10.3906C46.2031 10.3906 46.5156 10.4062 46.7031 10.4375V12.2812C46.5312 12.2188 46.1094 12.1562 45.7812 12.1562C44.6719 12.1562 43.8594 12.9219 43.8594 14V19H41.8594Z" fill="white"/>
<path d="M37.9688 15.4375V10.5156H39.9531V19H38.0312V17.5H37.9375C37.5469 18.4375 36.6562 19.1094 35.3906 19.1094C33.7188 19.1094 32.5625 17.9531 32.5469 15.9219V10.5156H34.5469V15.6094C34.5469 16.6875 35.1875 17.375 36.1562 17.375C37.0312 17.375 37.9688 16.7344 37.9688 15.4375Z" fill="white"/>
<path d="M31.0156 10.5156V12.0469H29.3438V16.4531C29.3438 17.2656 29.75 17.4375 30.25 17.4375C30.4844 17.4375 30.875 17.4219 31.125 17.4062V19.0312C30.8906 19.0781 30.5 19.1094 30 19.1094C28.5 19.1094 27.3438 18.375 27.3594 16.7812V12.0469H26.1406V10.5156H27.3594V8.48438H29.3438V10.5156H31.0156Z" fill="white"/>
<path d="M21.4688 19.1719C18.9062 19.1719 17.3438 17.4688 17.3438 14.8125C17.3438 12.1875 18.9375 10.4062 21.3594 10.4062C23.4375 10.4062 25.2344 11.7031 25.2344 14.6875V15.3125H19.3125C19.3359 16.7578 20.1875 17.6094 21.4844 17.6094C22.3594 17.6094 22.9531 17.2344 23.2031 16.7344H25.1562C24.7969 18.2031 23.4375 19.1719 21.4688 19.1719ZM19.3281 13.9531H23.3281C23.3125 12.7969 22.5469 11.9531 21.3906 11.9531C20.1875 11.9531 19.3906 12.8672 19.3281 13.9531Z" fill="white"/>
<path d="M11.9531 19V10.5156H13.8906V11.9219H13.9844C14.2812 10.9531 15.1094 10.3906 16.0781 10.3906C16.2969 10.3906 16.6094 10.4062 16.7969 10.4375V12.2812C16.625 12.2188 16.2031 12.1562 15.875 12.1562C14.7656 12.1562 13.9531 12.9219 13.9531 14V19H11.9531Z" fill="white"/>
</svg>
