<svg width="32" height="32" viewBox="0 0 32 32" fill="none" xmlns="http://www.w3.org/2000/svg">
<path opacity="0.2" d="M0 16C0 24.8366 7.16344 32 16 32C24.8366 32 32 24.8366 32 16C32 7.16344 24.8366 0 16 0C7.16344 0 0 7.16344 0 16Z" fill="#E0E0E0"/>
<path d="M8.5 11.51L16.4992 16.1295L8.5 20.7491V11.51Z" fill="#20232D"/>
<path d="M8.9999 12.3749L12.2496 14.2497L15.4992 16.1245L12.2496 17.9993L8.9999 19.8741V12.3699M8.49995 11.005C8.23998 11.005 8 11.215 8 11.5049V20.744C8 21.0339 8.23998 21.2439 8.49995 21.2439C8.58494 21.2439 8.66993 21.2239 8.74992 21.1739L12.7495 18.8642L16.7491 16.5544C17.0841 16.3644 17.0841 15.8795 16.7491 15.6895L12.7495 13.3797L8.74992 11.07C8.66993 11.025 8.58494 11 8.49995 11V11.005Z" fill="#20232D"/>
<path d="M17.502 11.51L25.5011 16.1295L17.502 20.7491V11.51Z" fill="#20232D"/>
<path d="M18.0018 12.3749L21.2515 14.2497L24.5012 16.1245L21.2515 17.9993L18.0018 19.8741V12.3699M17.5019 11.005C17.2419 11.005 17.002 11.215 17.002 11.5049V20.744C17.002 21.0339 17.2419 21.2439 17.5019 21.2439C17.5869 21.2439 17.6719 21.2239 17.7519 21.1739L21.7515 18.8642L25.751 16.5544C26.086 16.3644 26.086 15.8795 25.751 15.6895L21.7515 13.3797L17.7519 11.07C17.6719 11.025 17.5869 11 17.5019 11V11.005Z" fill="#20232D"/>
</svg>
