<svg width="22" height="22" viewBox="0 0 22 22" fill="none" xmlns="http://www.w3.org/2000/svg">
<path d="M21.56 11.25C21.56 10.47 21.49 9.72 21.36 9H11V13.26H16.92C16.66 14.63 15.88 15.79 14.71 16.57V19.34H18.28C20.36 17.42 21.56 14.6 21.56 11.25Z" fill="#4285F4"/>
<path d="M11 22.0001C13.97 22.0001 16.46 21.0201 18.28 19.3401L14.71 16.5701C13.73 17.2301 12.48 17.6301 11 17.6301C8.14 17.6301 5.71 15.7001 4.83999 13.1001H1.17999V15.9401C2.98999 19.5301 6.7 22.0001 11 22.0001Z" fill="#34A853"/>
<path d="M4.84 13.0901C4.62 12.4301 4.49 11.7301 4.49 11.0001C4.49 10.2701 4.62 9.57007 4.84 8.91007V6.07007H1.18C0.43 7.55007 0 9.22007 0 11.0001C0 12.7801 0.43 14.4501 1.18 15.9301L4.03 13.7101L4.84 13.0901Z" fill="#FBBC05"/>
<path d="M11 4.38C12.62 4.38 14.06 4.94 15.21 6.02L18.36 2.87C16.45 1.09 13.97 0 11 0C6.7 0 2.98999 2.47 1.17999 6.07L4.83999 8.91C5.71 6.31 8.14 4.38 11 4.38Z" fill="#EA4335"/>
</svg>
