<svg width="16" height="17" viewBox="0 0 16 17" fill="none" xmlns="http://www.w3.org/2000/svg">
<path d="M4.5 3.86499L12.5 8.48499L4.5 13.105V3.86499Z" fill="white"/>
<path d="M5 4.72998L8.25 6.60498L11.5 8.47998L8.25 10.355L5 12.23V4.72498M4.5 3.35995C4.24 3.35995 4 3.56995 4 3.85995V13.1C4 13.39 4.24 13.6 4.5 13.6C4.585 13.6 4.67 13.58 4.75 13.53L8.75 11.22L12.75 8.90997C13.085 8.71997 13.085 8.23498 12.75 8.04498L8.75 5.73495L4.75 3.42496C4.67 3.37996 4.585 3.35498 4.5 3.35498V3.35995Z" fill="white"/>
</svg>
