<svg width="139" height="42" viewBox="0 0 139 42" fill="none" xmlns="http://www.w3.org/2000/svg">
<g opacity="0.5">
<path d="M128.091 41.4167H131.131V34.9016H128.091V41.4167Z" fill="white"/>
<path d="M128.091 29.7538H131.131V23.2396H128.091V29.7538Z" fill="white"/>
<path d="M126.586 33.9479V30.9076H120.071V33.9479H126.586Z" fill="white"/>
<path d="M138.915 33.9484V30.9081H132.4V33.9484H138.915Z" fill="white"/>
<path d="M104.077 41.4167H107.117V34.9016H104.077V41.4167Z" fill="white"/>
<path d="M104.077 29.7538H107.117V23.2396H104.077V29.7538Z" fill="white"/>
<path d="M102.572 33.9479V30.9076H96.0572V33.9479H102.572Z" fill="white"/>
<path d="M114.901 33.9484V30.9081H108.386V33.9484H114.901Z" fill="white"/>
<path d="M80.0623 41.4167H83.1025V34.9016H80.0623V41.4167Z" fill="white"/>
<path d="M80.0623 29.7538H83.1025V23.2396H80.0623V29.7538Z" fill="white"/>
<path d="M78.5576 33.9479V30.9076H72.0425V33.9479H78.5576Z" fill="white"/>
<path d="M90.8867 33.9484V30.9081H84.3716V33.9484H90.8867Z" fill="white"/>
<path d="M56.0486 41.4167H59.0889V34.9016H56.0486V41.4167Z" fill="white"/>
<path d="M56.0486 29.7538H59.0889V23.2396H56.0486V29.7538Z" fill="white"/>
<path d="M54.5439 33.9479V30.9076H48.0289V33.9479H54.5439Z" fill="white"/>
<path d="M66.873 33.9484V30.9081H60.358V33.9484H66.873Z" fill="white"/>
<path d="M32.034 41.4167H35.0742V34.9016H32.034V41.4167Z" fill="white"/>
<path d="M32.034 29.7538H35.0742V23.2396H32.034V29.7538Z" fill="white"/>
<path d="M30.5293 33.9479V30.9076H24.0142V33.9479H30.5293Z" fill="white"/>
<path d="M42.8584 33.9484V30.9081H36.3433V33.9484H42.8584Z" fill="white"/>
<path d="M8.02029 41.4167H11.0605V34.9016H8.02029V41.4167Z" fill="white"/>
<path d="M8.02029 29.7538H11.0605V23.2396H8.02029V29.7538Z" fill="white"/>
<path d="M6.51562 33.9479V30.9076H0.000530243V33.9479H6.51562Z" fill="white"/>
<path d="M18.8447 33.9484V30.9081H12.3296V33.9484H18.8447Z" fill="white"/>
<path d="M128.091 18.1772H131.131V11.6622H128.091V18.1772Z" fill="white"/>
<path d="M128.091 6.5144H131.131V0.000130177H128.091V6.5144Z" fill="white"/>
<path d="M126.586 10.7084V7.66815H120.071V10.7084H126.586Z" fill="white"/>
<path d="M138.915 10.709V7.6687H132.4V10.709H138.915Z" fill="white"/>
<path d="M104.077 18.1772H107.117V11.6622H104.077V18.1772Z" fill="white"/>
<path d="M104.077 6.5144H107.117V0.000130177H104.077V6.5144Z" fill="white"/>
<path d="M102.572 10.7084V7.66815H96.0572V10.7084H102.572Z" fill="white"/>
<path d="M114.901 10.709V7.6687H108.386V10.709H114.901Z" fill="white"/>
<path d="M80.0623 18.1772H83.1025V11.6622H80.0623V18.1772Z" fill="white"/>
<path d="M80.0623 6.5144H83.1025V0.000130177H80.0623V6.5144Z" fill="white"/>
<path d="M78.5576 10.7084V7.66815H72.0425V10.7084H78.5576Z" fill="white"/>
<path d="M90.8867 10.709V7.6687H84.3716V10.709H90.8867Z" fill="white"/>
<path d="M56.0486 18.1772H59.0889V11.6622H56.0486V18.1772Z" fill="white"/>
<path d="M56.0486 6.5144H59.0889V0.000130177H56.0486V6.5144Z" fill="white"/>
<path d="M54.5439 10.7084V7.66815H48.0289V10.7084H54.5439Z" fill="white"/>
<path d="M66.873 10.709V7.6687H60.358V10.709H66.873Z" fill="white"/>
</g>
</svg>
