<svg width="283" height="42" viewBox="0 0 283 42" fill="none" xmlns="http://www.w3.org/2000/svg">
<g opacity="0.5">
<path d="M10.8249 41.4167H7.78467V34.9016H10.8249V41.4167Z" fill="white"/>
<path d="M10.8249 29.7538H7.78467V23.2396H10.8249V29.7538Z" fill="white"/>
<path d="M12.3296 33.9479V30.9076H18.8447V33.9479H12.3296Z" fill="white"/>
<path d="M0 33.9484L0 30.9081H6.51509V33.9484H0Z" fill="white"/>
<path d="M34.8391 41.4167H31.7988V34.9016H34.8391V41.4167Z" fill="white"/>
<path d="M34.8391 29.7538H31.7988V23.2396H34.8391V29.7538Z" fill="white"/>
<path d="M36.3438 33.9479V30.9076H42.8588V33.9479H36.3438Z" fill="white"/>
<path d="M24.0142 33.9484V30.9081H30.5293V33.9484H24.0142Z" fill="white"/>
<path d="M58.8532 41.4167H55.813V34.9016H58.8532V41.4167Z" fill="white"/>
<path d="M58.8532 29.7538H55.813V23.2396H58.8532V29.7538Z" fill="white"/>
<path d="M60.3579 33.9479V30.9076H66.873V33.9479H60.3579Z" fill="white"/>
<path d="M48.0283 33.9484V30.9081H54.5434V33.9484H48.0283Z" fill="white"/>
<path d="M82.8674 41.4167H79.8271V34.9016H82.8674V41.4167Z" fill="white"/>
<path d="M82.8674 29.7538H79.8271V23.2396H82.8674V29.7538Z" fill="white"/>
<path d="M84.3721 33.9479V30.9076H90.8872V33.9479H84.3721Z" fill="white"/>
<path d="M72.0425 33.9484V30.9081H78.5576V33.9484H72.0425Z" fill="white"/>
<path d="M106.882 41.4167H103.841V34.9016H106.882V41.4167Z" fill="white"/>
<path d="M106.882 29.7538H103.841V23.2396H106.882V29.7538Z" fill="white"/>
<path d="M108.386 33.9479V30.9076H114.901V33.9479H108.386Z" fill="white"/>
<path d="M96.0566 33.9484V30.9081H102.572V33.9484H96.0566Z" fill="white"/>
<path d="M130.896 41.4167H127.855V34.9016H130.896V41.4167Z" fill="white"/>
<path d="M130.896 29.7538H127.855V23.2396H130.896V29.7538Z" fill="white"/>
<path d="M132.4 33.9479V30.9076H138.915V33.9479H132.4Z" fill="white"/>
<path d="M120.071 33.9484V30.9081H126.586V33.9484H120.071Z" fill="white"/>
<path d="M154.91 41.4167H151.87V34.9016H154.91V41.4167Z" fill="white"/>
<path d="M154.91 29.7538H151.87V23.2396H154.91V29.7538Z" fill="white"/>
<path d="M156.415 33.9479V30.9076H162.93V33.9479H156.415Z" fill="white"/>
<path d="M144.085 33.9484V30.9081H150.6V33.9484H144.085Z" fill="white"/>
<path d="M178.924 41.4167H175.883V34.9016H178.924V41.4167Z" fill="white"/>
<path d="M178.924 29.7538H175.883V23.2396H178.924V29.7538Z" fill="white"/>
<path d="M180.428 33.9479V30.9076H186.943V33.9479H180.428Z" fill="white"/>
<path d="M168.099 33.9484V30.9081H174.614V33.9484H168.099Z" fill="white"/>
<path d="M202.938 41.4167H199.897V34.9016H202.938V41.4167Z" fill="white"/>
<path d="M202.938 29.7538H199.897V23.2396H202.938V29.7538Z" fill="white"/>
<path d="M204.442 33.9479V30.9076H210.957V33.9479H204.442Z" fill="white"/>
<path d="M192.113 33.9484V30.9081H198.628V33.9484H192.113Z" fill="white"/>
<path d="M226.952 41.4167H223.912V34.9016H226.952V41.4167Z" fill="white"/>
<path d="M226.952 29.7538H223.912V23.2396H226.952V29.7538Z" fill="white"/>
<path d="M228.457 33.9479V30.9076H234.972V33.9479H228.457Z" fill="white"/>
<path d="M216.127 33.9484V30.9081H222.642V33.9484H216.127Z" fill="white"/>
<path d="M250.966 41.4167H247.926V34.9016H250.966V41.4167Z" fill="white"/>
<path d="M250.966 29.7538H247.926V23.2396H250.966V29.7538Z" fill="white"/>
<path d="M252.471 33.9479V30.9076H258.986V33.9479H252.471Z" fill="white"/>
<path d="M240.141 33.9484V30.9081H246.656V33.9484H240.141Z" fill="white"/>
<path d="M274.98 41.4167H271.94V34.9016H274.98V41.4167Z" fill="white"/>
<path d="M274.98 29.7538H271.94V23.2396H274.98V29.7538Z" fill="white"/>
<path d="M276.485 33.9479V30.9076H283V33.9479H276.485Z" fill="white"/>
<path d="M264.155 33.9484V30.9081H270.67V33.9484H264.155Z" fill="white"/>
<path d="M10.8249 18.1772H7.78467V11.6622H10.8249V18.1772Z" fill="white"/>
<path d="M10.8249 6.5144H7.78467V0.000130177H10.8249V6.5144Z" fill="white"/>
<path d="M12.3296 10.7084V7.66815H18.8447V10.7084H12.3296Z" fill="white"/>
<path d="M0 10.709L0 7.6687H6.51509V10.709H0Z" fill="white"/>
<path d="M34.8391 18.1772H31.7988V11.6622H34.8391V18.1772Z" fill="white"/>
<path d="M34.8391 6.5144H31.7988V0.000130177H34.8391V6.5144Z" fill="white"/>
<path d="M36.3438 10.7084V7.66815H42.8588V10.7084H36.3438Z" fill="white"/>
<path d="M24.0142 10.709V7.6687H30.5293V10.709H24.0142Z" fill="white"/>
<path d="M58.8532 18.1772H55.813V11.6622H58.8532V18.1772Z" fill="white"/>
<path d="M58.8532 6.5144H55.813V0.000130177H58.8532V6.5144Z" fill="white"/>
<path d="M60.3579 10.7084V7.66815H66.873V10.7084H60.3579Z" fill="white"/>
<path d="M48.0283 10.709V7.6687H54.5434V10.709H48.0283Z" fill="white"/>
<path d="M82.8674 18.1772H79.8271V11.6622H82.8674V18.1772Z" fill="white"/>
<path d="M82.8674 6.5144H79.8271V0.000130177H82.8674V6.5144Z" fill="white"/>
<path d="M84.3721 10.7084V7.66815H90.8872V10.7084H84.3721Z" fill="white"/>
<path d="M72.0425 10.709V7.6687H78.5576V10.709H72.0425Z" fill="white"/>
<path d="M106.882 18.1772H103.841V11.6622H106.882V18.1772Z" fill="white"/>
<path d="M106.882 6.5144H103.841V0.000130177H106.882V6.5144Z" fill="white"/>
<path d="M108.386 10.7084V7.66815H114.901V10.7084H108.386Z" fill="white"/>
<path d="M96.0566 10.709V7.6687H102.572V10.709H96.0566Z" fill="white"/>
<path d="M130.896 18.1772H127.855V11.6622H130.896V18.1772Z" fill="white"/>
<path d="M130.896 6.5144H127.855V0.000130177H130.896V6.5144Z" fill="white"/>
<path d="M132.4 10.7084V7.66815H138.915V10.7084H132.4Z" fill="white"/>
<path d="M120.071 10.709V7.6687H126.586V10.709H120.071Z" fill="white"/>
<path d="M154.91 18.1772H151.87V11.6622H154.91V18.1772Z" fill="white"/>
<path d="M154.91 6.5144H151.87V0.000130177H154.91V6.5144Z" fill="white"/>
<path d="M156.415 10.7084V7.66815H162.93V10.7084H156.415Z" fill="white"/>
<path d="M144.085 10.709V7.6687H150.6V10.709H144.085Z" fill="white"/>
<path d="M178.924 18.1772H175.883V11.6622H178.924V18.1772Z" fill="white"/>
<path d="M178.924 6.5144H175.883V0.000130177H178.924V6.5144Z" fill="white"/>
<path d="M180.428 10.7084V7.66815H186.943V10.7084H180.428Z" fill="white"/>
<path d="M168.099 10.709V7.6687H174.614V10.709H168.099Z" fill="white"/>
<path d="M202.938 18.1772H199.897V11.6622H202.938V18.1772Z" fill="white"/>
<path d="M202.938 6.5144H199.897V0.000130177H202.938V6.5144Z" fill="white"/>
<path d="M204.442 10.7084V7.66815H210.957V10.7084H204.442Z" fill="white"/>
<path d="M192.113 10.709V7.6687H198.628V10.709H192.113Z" fill="white"/>
<path d="M226.952 18.1772H223.912V11.6622H226.952V18.1772Z" fill="white"/>
<path d="M226.952 6.5144H223.912V0.000130177H226.952V6.5144Z" fill="white"/>
<path d="M228.457 10.7084V7.66815H234.972V10.7084H228.457Z" fill="white"/>
<path d="M216.127 10.709V7.6687H222.642V10.709H216.127Z" fill="white"/>
</g>
</svg>
