<svg width="139" height="893" viewBox="0 0 139 893" fill="none" xmlns="http://www.w3.org/2000/svg">
<g opacity="0.5">
<path d="M128.091 892.417H131.131V885.902H128.091V892.417Z" fill="white"/>
<path d="M128.091 880.754H131.131V874.24H128.091V880.754Z" fill="white"/>
<path d="M126.586 884.948V881.908H120.071V884.948H126.586Z" fill="white"/>
<path d="M138.915 884.948V881.908H132.4V884.948H138.915Z" fill="white"/>
<path d="M104.077 892.417H107.117V885.902H104.077V892.417Z" fill="white"/>
<path d="M104.077 880.754H107.117V874.24H104.077V880.754Z" fill="white"/>
<path d="M102.572 884.948V881.908H96.0572V884.948H102.572Z" fill="white"/>
<path d="M114.901 884.948V881.908H108.386V884.948H114.901Z" fill="white"/>
<path d="M80.0623 892.417H83.1025V885.902H80.0623V892.417Z" fill="white"/>
<path d="M80.0623 880.754H83.1025V874.24H80.0623V880.754Z" fill="white"/>
<path d="M78.5576 884.948V881.908H72.0425V884.948H78.5576Z" fill="white"/>
<path d="M90.8867 884.948V881.908H84.3716V884.948H90.8867Z" fill="white"/>
<path d="M56.0486 892.417H59.0889V885.902H56.0486V892.417Z" fill="white"/>
<path d="M56.0486 880.754H59.0889V874.24H56.0486V880.754Z" fill="white"/>
<path d="M54.5439 884.948V881.908H48.0289V884.948H54.5439Z" fill="white"/>
<path d="M66.873 884.948V881.908H60.358V884.948H66.873Z" fill="white"/>
<path d="M32.034 892.417H35.0742V885.902H32.034V892.417Z" fill="white"/>
<path d="M32.034 880.754H35.0742V874.24H32.034V880.754Z" fill="white"/>
<path d="M30.5293 884.948V881.908H24.0142V884.948H30.5293Z" fill="white"/>
<path d="M42.8584 884.948V881.908H36.3433V884.948H42.8584Z" fill="white"/>
<path d="M8.02029 892.417H11.0605V885.902H8.02029V892.417Z" fill="white"/>
<path d="M8.02029 880.754H11.0605V874.24H8.02029V880.754Z" fill="white"/>
<path d="M6.51562 884.948V881.908H0.000530243V884.948H6.51562Z" fill="white"/>
<path d="M18.8447 884.948V881.908H12.3296V884.948H18.8447Z" fill="white"/>
<path d="M128.091 869.177H131.131V862.662H128.091V869.177Z" fill="white"/>
<path d="M128.091 857.514H131.131V851H128.091V857.514Z" fill="white"/>
<path d="M126.586 861.708V858.668H120.071V861.708H126.586Z" fill="white"/>
<path d="M138.915 861.709V858.669H132.4V861.709H138.915Z" fill="white"/>
<path d="M104.077 869.177H107.117V862.662H104.077V869.177Z" fill="white"/>
<path d="M104.077 857.514H107.117V851H104.077V857.514Z" fill="white"/>
<path d="M102.572 861.708V858.668H96.0572V861.708H102.572Z" fill="white"/>
<path d="M114.901 861.709V858.669H108.386V861.709H114.901Z" fill="white"/>
<path d="M80.0623 869.177H83.1025V862.662H80.0623V869.177Z" fill="white"/>
<path d="M80.0623 857.514H83.1025V851H80.0623V857.514Z" fill="white"/>
<path d="M78.5576 861.708V858.668H72.0425V861.708H78.5576Z" fill="white"/>
<path d="M90.8867 861.709V858.669H84.3716V861.709H90.8867Z" fill="white"/>
<path d="M56.0486 869.177H59.0889V862.662H56.0486V869.177Z" fill="white"/>
<path d="M56.0486 857.514H59.0889V851H56.0486V857.514Z" fill="white"/>
<path d="M54.5439 861.708V858.668H48.0289V861.708H54.5439Z" fill="white"/>
<path d="M66.873 861.709V858.669H60.358V861.709H66.873Z" fill="white"/>
</g>
<g opacity="0.5">
<path d="M128.091 0H131.131V6.51509H128.091V0Z" fill="white"/>
<path d="M128.091 11.6628H131.131V18.1771H128.091V11.6628Z" fill="white"/>
<path d="M126.586 7.46888V10.5092H120.071V7.46888H126.586Z" fill="white"/>
<path d="M138.915 7.46827V10.5085H132.4V7.46827H138.915Z" fill="white"/>
<path d="M104.077 0H107.117V6.51509H104.077V0Z" fill="white"/>
<path d="M104.077 11.6628H107.117V18.1771H104.077V11.6628Z" fill="white"/>
<path d="M102.572 7.46888V10.5092H96.0572V7.46888H102.572Z" fill="white"/>
<path d="M114.901 7.46827V10.5085H108.386V7.46827H114.901Z" fill="white"/>
<path d="M80.0623 0H83.1025V6.51509H80.0623V0Z" fill="white"/>
<path d="M80.0623 11.6628H83.1025V18.1771H80.0623V11.6628Z" fill="white"/>
<path d="M78.5576 7.46888V10.5092H72.0425V7.46888H78.5576Z" fill="white"/>
<path d="M90.8867 7.46827V10.5085H84.3716V7.46827H90.8867Z" fill="white"/>
<path d="M56.0486 0H59.0889V6.51509H56.0486V0Z" fill="white"/>
<path d="M56.0486 11.6628H59.0889V18.1771H56.0486V11.6628Z" fill="white"/>
<path d="M54.5439 7.46888V10.5092H48.0289V7.46888H54.5439Z" fill="white"/>
<path d="M66.873 7.46827V10.5085H60.358V7.46827H66.873Z" fill="white"/>
<path d="M32.034 0H35.0742V6.51509H32.034V0Z" fill="white"/>
<path d="M32.034 11.6628H35.0742V18.1771H32.034V11.6628Z" fill="white"/>
<path d="M30.5293 7.46888V10.5092H24.0142V7.46888H30.5293Z" fill="white"/>
<path d="M42.8584 7.46827V10.5085H36.3433V7.46827H42.8584Z" fill="white"/>
<path d="M8.02029 0H11.0605V6.51509H8.02029V0Z" fill="white"/>
<path d="M8.02029 11.6628H11.0605V18.1771H8.02029V11.6628Z" fill="white"/>
<path d="M6.51562 7.46888V10.5092H0.000530243V7.46888H6.51562Z" fill="white"/>
<path d="M18.8447 7.46827V10.5085H12.3296V7.46827H18.8447Z" fill="white"/>
<path d="M128.091 23.2395H131.131V29.7546H128.091V23.2395Z" fill="white"/>
<path d="M128.091 34.9023H131.131V41.4166H128.091V34.9023Z" fill="white"/>
<path d="M126.586 30.7084V33.7487H120.071V30.7084H126.586Z" fill="white"/>
<path d="M138.915 30.7078V33.748H132.4V30.7078H138.915Z" fill="white"/>
<path d="M104.077 23.2395H107.117V29.7546H104.077V23.2395Z" fill="white"/>
<path d="M104.077 34.9023H107.117V41.4166H104.077V34.9023Z" fill="white"/>
<path d="M102.572 30.7084V33.7487H96.0572V30.7084H102.572Z" fill="white"/>
<path d="M114.901 30.7078V33.748H108.386V30.7078H114.901Z" fill="white"/>
<path d="M80.0623 23.2395H83.1025V29.7546H80.0623V23.2395Z" fill="white"/>
<path d="M80.0623 34.9023H83.1025V41.4166H80.0623V34.9023Z" fill="white"/>
<path d="M78.5576 30.7084V33.7487H72.0425V30.7084H78.5576Z" fill="white"/>
<path d="M90.8867 30.7078V33.748H84.3716V30.7078H90.8867Z" fill="white"/>
<path d="M56.0486 23.2395H59.0889V29.7546H56.0486V23.2395Z" fill="white"/>
<path d="M56.0486 34.9023H59.0889V41.4166H56.0486V34.9023Z" fill="white"/>
<path d="M54.5439 30.7084V33.7487H48.0289V30.7084H54.5439Z" fill="white"/>
<path d="M66.873 30.7078V33.748H60.358V30.7078H66.873Z" fill="white"/>
</g>
</svg>
