<svg width="284" height="893" viewBox="0 0 284 893" fill="none" xmlns="http://www.w3.org/2000/svg">
<g opacity="0.5">
<path d="M10.8249 892.417H7.78467V885.902H10.8249V892.417Z" fill="white"/>
<path d="M10.8249 880.754H7.78467V874.24H10.8249V880.754Z" fill="white"/>
<path d="M12.3296 884.948V881.908H18.8447V884.948H12.3296Z" fill="white"/>
<path d="M0 884.948L0 881.908H6.51509V884.948H0Z" fill="white"/>
<path d="M34.8391 892.417H31.7988V885.902H34.8391V892.417Z" fill="white"/>
<path d="M34.8391 880.754H31.7988V874.24H34.8391V880.754Z" fill="white"/>
<path d="M36.3438 884.948V881.908H42.8588V884.948H36.3438Z" fill="white"/>
<path d="M24.0142 884.948V881.908H30.5293V884.948H24.0142Z" fill="white"/>
<path d="M58.8532 892.417H55.813V885.902H58.8532V892.417Z" fill="white"/>
<path d="M58.8532 880.754H55.813V874.24H58.8532V880.754Z" fill="white"/>
<path d="M60.3579 884.948V881.908H66.873V884.948H60.3579Z" fill="white"/>
<path d="M48.0283 884.948V881.908H54.5434V884.948H48.0283Z" fill="white"/>
<path d="M82.8674 892.417H79.8271V885.902H82.8674V892.417Z" fill="white"/>
<path d="M82.8674 880.754H79.8271V874.24H82.8674V880.754Z" fill="white"/>
<path d="M84.3721 884.948V881.908H90.8872V884.948H84.3721Z" fill="white"/>
<path d="M72.0425 884.948V881.908H78.5576V884.948H72.0425Z" fill="white"/>
<path d="M106.882 892.417H103.841V885.902H106.882V892.417Z" fill="white"/>
<path d="M106.882 880.754H103.841V874.24H106.882V880.754Z" fill="white"/>
<path d="M108.386 884.948V881.908H114.901V884.948H108.386Z" fill="white"/>
<path d="M96.0566 884.948V881.908H102.572V884.948H96.0566Z" fill="white"/>
<path d="M130.896 892.417H127.855V885.902H130.896V892.417Z" fill="white"/>
<path d="M130.896 880.754H127.855V874.24H130.896V880.754Z" fill="white"/>
<path d="M132.4 884.948V881.908H138.915V884.948H132.4Z" fill="white"/>
<path d="M120.071 884.948V881.908H126.586V884.948H120.071Z" fill="white"/>
<path d="M154.91 892.417H151.87V885.902H154.91V892.417Z" fill="white"/>
<path d="M154.91 880.754H151.87V874.24H154.91V880.754Z" fill="white"/>
<path d="M156.415 884.948V881.908H162.93V884.948H156.415Z" fill="white"/>
<path d="M144.085 884.948V881.908H150.6V884.948H144.085Z" fill="white"/>
<path d="M178.924 892.417H175.883V885.902H178.924V892.417Z" fill="white"/>
<path d="M178.924 880.754H175.883V874.24H178.924V880.754Z" fill="white"/>
<path d="M180.428 884.948V881.908H186.943V884.948H180.428Z" fill="white"/>
<path d="M168.099 884.948V881.908H174.614V884.948H168.099Z" fill="white"/>
<path d="M202.938 892.417H199.897V885.902H202.938V892.417Z" fill="white"/>
<path d="M202.938 880.754H199.897V874.24H202.938V880.754Z" fill="white"/>
<path d="M204.442 884.948V881.908H210.957V884.948H204.442Z" fill="white"/>
<path d="M192.113 884.948V881.908H198.628V884.948H192.113Z" fill="white"/>
<path d="M226.952 892.417H223.912V885.902H226.952V892.417Z" fill="white"/>
<path d="M226.952 880.754H223.912V874.24H226.952V880.754Z" fill="white"/>
<path d="M228.457 884.948V881.908H234.972V884.948H228.457Z" fill="white"/>
<path d="M216.127 884.948V881.908H222.642V884.948H216.127Z" fill="white"/>
<path d="M250.966 892.417H247.926V885.902H250.966V892.417Z" fill="white"/>
<path d="M250.966 880.754H247.926V874.24H250.966V880.754Z" fill="white"/>
<path d="M252.471 884.948V881.908H258.986V884.948H252.471Z" fill="white"/>
<path d="M240.141 884.948V881.908H246.656V884.948H240.141Z" fill="white"/>
<path d="M274.98 892.417H271.94V885.902H274.98V892.417Z" fill="white"/>
<path d="M274.98 880.754H271.94V874.24H274.98V880.754Z" fill="white"/>
<path d="M276.485 884.948V881.908H283V884.948H276.485Z" fill="white"/>
<path d="M264.155 884.948V881.908H270.67V884.948H264.155Z" fill="white"/>
<path d="M10.8249 869.177H7.78467V862.662H10.8249V869.177Z" fill="white"/>
<path d="M10.8249 857.514H7.78467V851H10.8249V857.514Z" fill="white"/>
<path d="M12.3296 861.708V858.668H18.8447V861.708H12.3296Z" fill="white"/>
<path d="M0 861.709L0 858.669H6.51509V861.709H0Z" fill="white"/>
<path d="M34.8391 869.177H31.7988V862.662H34.8391V869.177Z" fill="white"/>
<path d="M34.8391 857.514H31.7988V851H34.8391V857.514Z" fill="white"/>
<path d="M36.3438 861.708V858.668H42.8588V861.708H36.3438Z" fill="white"/>
<path d="M24.0142 861.709V858.669H30.5293V861.709H24.0142Z" fill="white"/>
<path d="M58.8532 869.177H55.813V862.662H58.8532V869.177Z" fill="white"/>
<path d="M58.8532 857.514H55.813V851H58.8532V857.514Z" fill="white"/>
<path d="M60.3579 861.708V858.668H66.873V861.708H60.3579Z" fill="white"/>
<path d="M48.0283 861.709V858.669H54.5434V861.709H48.0283Z" fill="white"/>
<path d="M82.8674 869.177H79.8271V862.662H82.8674V869.177Z" fill="white"/>
<path d="M82.8674 857.514H79.8271V851H82.8674V857.514Z" fill="white"/>
<path d="M84.3721 861.708V858.668H90.8872V861.708H84.3721Z" fill="white"/>
<path d="M72.0425 861.709V858.669H78.5576V861.709H72.0425Z" fill="white"/>
<path d="M106.882 869.177H103.841V862.662H106.882V869.177Z" fill="white"/>
<path d="M106.882 857.514H103.841V851H106.882V857.514Z" fill="white"/>
<path d="M108.386 861.708V858.668H114.901V861.708H108.386Z" fill="white"/>
<path d="M96.0566 861.709V858.669H102.572V861.709H96.0566Z" fill="white"/>
<path d="M130.896 869.177H127.855V862.662H130.896V869.177Z" fill="white"/>
<path d="M130.896 857.514H127.855V851H130.896V857.514Z" fill="white"/>
<path d="M132.4 861.708V858.668H138.915V861.708H132.4Z" fill="white"/>
<path d="M120.071 861.709V858.669H126.586V861.709H120.071Z" fill="white"/>
<path d="M154.91 869.177H151.87V862.662H154.91V869.177Z" fill="white"/>
<path d="M154.91 857.514H151.87V851H154.91V857.514Z" fill="white"/>
<path d="M156.415 861.708V858.668H162.93V861.708H156.415Z" fill="white"/>
<path d="M144.085 861.709V858.669H150.6V861.709H144.085Z" fill="white"/>
<path d="M178.924 869.177H175.883V862.662H178.924V869.177Z" fill="white"/>
<path d="M178.924 857.514H175.883V851H178.924V857.514Z" fill="white"/>
<path d="M180.428 861.708V858.668H186.943V861.708H180.428Z" fill="white"/>
<path d="M168.099 861.709V858.669H174.614V861.709H168.099Z" fill="white"/>
<path d="M202.938 869.177H199.897V862.662H202.938V869.177Z" fill="white"/>
<path d="M202.938 857.514H199.897V851H202.938V857.514Z" fill="white"/>
<path d="M204.442 861.708V858.668H210.957V861.708H204.442Z" fill="white"/>
<path d="M192.113 861.709V858.669H198.628V861.709H192.113Z" fill="white"/>
<path d="M226.952 869.177H223.912V862.662H226.952V869.177Z" fill="white"/>
<path d="M226.952 857.514H223.912V851H226.952V857.514Z" fill="white"/>
<path d="M228.457 861.708V858.668H234.972V861.708H228.457Z" fill="white"/>
<path d="M216.127 861.709V858.669H222.642V861.709H216.127Z" fill="white"/>
</g>
<g opacity="0.5">
<path d="M11.8249 0H8.78467V6.51509H11.8249V0Z" fill="white"/>
<path d="M11.8249 11.6628H8.78467V18.1771H11.8249V11.6628Z" fill="white"/>
<path d="M13.3296 7.46888V10.5092H19.8447V7.46888H13.3296Z" fill="white"/>
<path d="M1 7.46827L1 10.5085H7.51509V7.46827H1Z" fill="white"/>
<path d="M35.8391 0H32.7988V6.51509H35.8391V0Z" fill="white"/>
<path d="M35.8391 11.6628H32.7988V18.1771H35.8391V11.6628Z" fill="white"/>
<path d="M37.3438 7.46888V10.5092H43.8588V7.46888H37.3438Z" fill="white"/>
<path d="M25.0142 7.46827V10.5085H31.5293V7.46827H25.0142Z" fill="white"/>
<path d="M59.8532 0H56.813V6.51509H59.8532V0Z" fill="white"/>
<path d="M59.8532 11.6628H56.813V18.1771H59.8532V11.6628Z" fill="white"/>
<path d="M61.3579 7.46888V10.5092H67.873V7.46888H61.3579Z" fill="white"/>
<path d="M49.0283 7.46827V10.5085H55.5434V7.46827H49.0283Z" fill="white"/>
<path d="M83.8674 0H80.8271V6.51509H83.8674V0Z" fill="white"/>
<path d="M83.8674 11.6628H80.8271V18.1771H83.8674V11.6628Z" fill="white"/>
<path d="M85.3721 7.46888V10.5092H91.8872V7.46888H85.3721Z" fill="white"/>
<path d="M73.0425 7.46827V10.5085H79.5576V7.46827H73.0425Z" fill="white"/>
<path d="M107.882 0H104.841V6.51509H107.882V0Z" fill="white"/>
<path d="M107.882 11.6628H104.841V18.1771H107.882V11.6628Z" fill="white"/>
<path d="M109.386 7.46888V10.5092H115.901V7.46888H109.386Z" fill="white"/>
<path d="M97.0566 7.46827V10.5085H103.572V7.46827H97.0566Z" fill="white"/>
<path d="M131.896 0H128.855V6.51509H131.896V0Z" fill="white"/>
<path d="M131.896 11.6628H128.855V18.1771H131.896V11.6628Z" fill="white"/>
<path d="M133.4 7.46888V10.5092H139.915V7.46888H133.4Z" fill="white"/>
<path d="M121.071 7.46827V10.5085H127.586V7.46827H121.071Z" fill="white"/>
<path d="M155.91 0H152.87V6.51509H155.91V0Z" fill="white"/>
<path d="M155.91 11.6628H152.87V18.1771H155.91V11.6628Z" fill="white"/>
<path d="M157.415 7.46888V10.5092H163.93V7.46888H157.415Z" fill="white"/>
<path d="M145.085 7.46827V10.5085H151.6V7.46827H145.085Z" fill="white"/>
<path d="M179.924 0H176.883V6.51509H179.924V0Z" fill="white"/>
<path d="M179.924 11.6628H176.883V18.1771H179.924V11.6628Z" fill="white"/>
<path d="M181.428 7.46888V10.5092H187.943V7.46888H181.428Z" fill="white"/>
<path d="M169.099 7.46827V10.5085H175.614V7.46827H169.099Z" fill="white"/>
<path d="M203.938 0H200.897V6.51509H203.938V0Z" fill="white"/>
<path d="M203.938 11.6628H200.897V18.1771H203.938V11.6628Z" fill="white"/>
<path d="M205.442 7.46888V10.5092H211.957V7.46888H205.442Z" fill="white"/>
<path d="M193.113 7.46827V10.5085H199.628V7.46827H193.113Z" fill="white"/>
<path d="M227.952 0H224.912V6.51509H227.952V0Z" fill="white"/>
<path d="M227.952 11.6628H224.912V18.1771H227.952V11.6628Z" fill="white"/>
<path d="M229.457 7.46888V10.5092H235.972V7.46888H229.457Z" fill="white"/>
<path d="M217.127 7.46827V10.5085H223.642V7.46827H217.127Z" fill="white"/>
<path d="M251.966 0H248.926V6.51509H251.966V0Z" fill="white"/>
<path d="M251.966 11.6628H248.926V18.1771H251.966V11.6628Z" fill="white"/>
<path d="M253.471 7.46888V10.5092H259.986V7.46888H253.471Z" fill="white"/>
<path d="M241.141 7.46827V10.5085H247.656V7.46827H241.141Z" fill="white"/>
<path d="M275.98 0H272.94V6.51509H275.98V0Z" fill="white"/>
<path d="M275.98 11.6628H272.94V18.1771H275.98V11.6628Z" fill="white"/>
<path d="M277.485 7.46888V10.5092H284V7.46888H277.485Z" fill="white"/>
<path d="M265.155 7.46827V10.5085H271.67V7.46827H265.155Z" fill="white"/>
<path d="M11.8249 23.2394H8.78467V29.7545H11.8249V23.2394Z" fill="white"/>
<path d="M11.8249 34.9022H8.78467V41.4165H11.8249V34.9022Z" fill="white"/>
<path d="M13.3296 30.7083V33.7485H19.8447V30.7083H13.3296Z" fill="white"/>
<path d="M1 30.7077L1 33.7479H7.51509V30.7077H1Z" fill="white"/>
<path d="M35.8391 23.2394H32.7988V29.7545H35.8391V23.2394Z" fill="white"/>
<path d="M35.8391 34.9022H32.7988V41.4165H35.8391V34.9022Z" fill="white"/>
<path d="M37.3438 30.7083V33.7485H43.8588V30.7083H37.3438Z" fill="white"/>
<path d="M25.0142 30.7077V33.7479H31.5293V30.7077H25.0142Z" fill="white"/>
<path d="M59.8532 23.2394H56.813V29.7545H59.8532V23.2394Z" fill="white"/>
<path d="M59.8532 34.9022H56.813V41.4165H59.8532V34.9022Z" fill="white"/>
<path d="M61.3579 30.7083V33.7485H67.873V30.7083H61.3579Z" fill="white"/>
<path d="M49.0283 30.7077V33.7479H55.5434V30.7077H49.0283Z" fill="white"/>
<path d="M83.8674 23.2394H80.8271V29.7545H83.8674V23.2394Z" fill="white"/>
<path d="M83.8674 34.9022H80.8271V41.4165H83.8674V34.9022Z" fill="white"/>
<path d="M85.3721 30.7083V33.7485H91.8872V30.7083H85.3721Z" fill="white"/>
<path d="M73.0425 30.7077V33.7479H79.5576V30.7077H73.0425Z" fill="white"/>
<path d="M107.882 23.2394H104.841V29.7545H107.882V23.2394Z" fill="white"/>
<path d="M107.882 34.9022H104.841V41.4165H107.882V34.9022Z" fill="white"/>
<path d="M109.386 30.7083V33.7485H115.901V30.7083H109.386Z" fill="white"/>
<path d="M97.0566 30.7077V33.7479H103.572V30.7077H97.0566Z" fill="white"/>
<path d="M131.896 23.2394H128.855V29.7545H131.896V23.2394Z" fill="white"/>
<path d="M131.896 34.9022H128.855V41.4165H131.896V34.9022Z" fill="white"/>
<path d="M133.4 30.7083V33.7485H139.915V30.7083H133.4Z" fill="white"/>
<path d="M121.071 30.7077V33.7479H127.586V30.7077H121.071Z" fill="white"/>
<path d="M155.91 23.2394H152.87V29.7545H155.91V23.2394Z" fill="white"/>
<path d="M155.91 34.9022H152.87V41.4165H155.91V34.9022Z" fill="white"/>
<path d="M157.415 30.7083V33.7485H163.93V30.7083H157.415Z" fill="white"/>
<path d="M145.085 30.7077V33.7479H151.6V30.7077H145.085Z" fill="white"/>
<path d="M179.924 23.2394H176.883V29.7545H179.924V23.2394Z" fill="white"/>
<path d="M179.924 34.9022H176.883V41.4165H179.924V34.9022Z" fill="white"/>
<path d="M181.428 30.7083V33.7485H187.943V30.7083H181.428Z" fill="white"/>
<path d="M169.099 30.7077V33.7479H175.614V30.7077H169.099Z" fill="white"/>
<path d="M203.938 23.2394H200.897V29.7545H203.938V23.2394Z" fill="white"/>
<path d="M203.938 34.9022H200.897V41.4165H203.938V34.9022Z" fill="white"/>
<path d="M205.442 30.7083V33.7485H211.957V30.7083H205.442Z" fill="white"/>
<path d="M193.113 30.7077V33.7479H199.628V30.7077H193.113Z" fill="white"/>
<path d="M227.952 23.2394H224.912V29.7545H227.952V23.2394Z" fill="white"/>
<path d="M227.952 34.9022H224.912V41.4165H227.952V34.9022Z" fill="white"/>
<path d="M229.457 30.7083V33.7485H235.972V30.7083H229.457Z" fill="white"/>
<path d="M217.127 30.7077V33.7479H223.642V30.7077H217.127Z" fill="white"/>
</g>
</svg>
