<svg width="23" height="38" viewBox="0 0 23 38" fill="none" xmlns="http://www.w3.org/2000/svg">
<path d="M21.499 7.99929L22.499 7.99926L22.499 6.99928L21.499 6.99929L21.499 7.99929ZM0.29193 7.29223C-0.0985935 7.68276 -0.0985921 8.31592 0.291934 8.70645L6.65591 15.0704C7.04644 15.4609 7.6796 15.4609 8.07012 15.0704C8.46065 14.6799 8.46065 14.0467 8.07012 13.6562L2.41325 7.99933L8.07009 2.34247C8.46062 1.95194 8.46061 1.31877 8.07009 0.928252C7.67956 0.53773 7.0464 0.53773 6.65587 0.928256L0.29193 7.29223ZM22.4998 37.4981L22.499 7.99926L20.499 7.99931L20.4998 37.4981L22.4998 37.4981ZM21.499 6.99929L0.999036 6.99934L0.999042 8.99934L21.499 8.99928L21.499 6.99929Z" fill="black"/>
</svg>
