<svg width="283" height="42" viewBox="0 0 283 42" fill="none" xmlns="http://www.w3.org/2000/svg">
<g opacity="0.5">
<path d="M10.8249 0H7.78467V6.51509H10.8249V0Z" fill="white"/>
<path d="M10.8249 11.6628H7.78467V18.1771H10.8249V11.6628Z" fill="white"/>
<path d="M12.3296 7.46888V10.5092H18.8447V7.46888H12.3296Z" fill="white"/>
<path d="M0 7.46827L0 10.5085H6.51509V7.46827H0Z" fill="white"/>
<path d="M34.8391 0H31.7988V6.51509H34.8391V0Z" fill="white"/>
<path d="M34.8391 11.6628H31.7988V18.1771H34.8391V11.6628Z" fill="white"/>
<path d="M36.3438 7.46888V10.5092H42.8588V7.46888H36.3438Z" fill="white"/>
<path d="M24.0142 7.46827V10.5085H30.5293V7.46827H24.0142Z" fill="white"/>
<path d="M58.8532 0H55.813V6.51509H58.8532V0Z" fill="white"/>
<path d="M58.8532 11.6628H55.813V18.1771H58.8532V11.6628Z" fill="white"/>
<path d="M60.3579 7.46888V10.5092H66.873V7.46888H60.3579Z" fill="white"/>
<path d="M48.0283 7.46827V10.5085H54.5434V7.46827H48.0283Z" fill="white"/>
<path d="M82.8674 0H79.8271V6.51509H82.8674V0Z" fill="white"/>
<path d="M82.8674 11.6628H79.8271V18.1771H82.8674V11.6628Z" fill="white"/>
<path d="M84.3721 7.46888V10.5092H90.8872V7.46888H84.3721Z" fill="white"/>
<path d="M72.0425 7.46827V10.5085H78.5576V7.46827H72.0425Z" fill="white"/>
<path d="M106.882 0H103.841V6.51509H106.882V0Z" fill="white"/>
<path d="M106.882 11.6628H103.841V18.1771H106.882V11.6628Z" fill="white"/>
<path d="M108.386 7.46888V10.5092H114.901V7.46888H108.386Z" fill="white"/>
<path d="M96.0566 7.46827V10.5085H102.572V7.46827H96.0566Z" fill="white"/>
<path d="M130.896 0H127.855V6.51509H130.896V0Z" fill="white"/>
<path d="M130.896 11.6628H127.855V18.1771H130.896V11.6628Z" fill="white"/>
<path d="M132.4 7.46888V10.5092H138.915V7.46888H132.4Z" fill="white"/>
<path d="M120.071 7.46827V10.5085H126.586V7.46827H120.071Z" fill="white"/>
<path d="M154.91 0H151.87V6.51509H154.91V0Z" fill="white"/>
<path d="M154.91 11.6628H151.87V18.1771H154.91V11.6628Z" fill="white"/>
<path d="M156.415 7.46888V10.5092H162.93V7.46888H156.415Z" fill="white"/>
<path d="M144.085 7.46827V10.5085H150.6V7.46827H144.085Z" fill="white"/>
<path d="M178.924 0H175.883V6.51509H178.924V0Z" fill="white"/>
<path d="M178.924 11.6628H175.883V18.1771H178.924V11.6628Z" fill="white"/>
<path d="M180.428 7.46888V10.5092H186.943V7.46888H180.428Z" fill="white"/>
<path d="M168.099 7.46827V10.5085H174.614V7.46827H168.099Z" fill="white"/>
<path d="M202.938 0H199.897V6.51509H202.938V0Z" fill="white"/>
<path d="M202.938 11.6628H199.897V18.1771H202.938V11.6628Z" fill="white"/>
<path d="M204.442 7.46888V10.5092H210.957V7.46888H204.442Z" fill="white"/>
<path d="M192.113 7.46827V10.5085H198.628V7.46827H192.113Z" fill="white"/>
<path d="M226.952 0H223.912V6.51509H226.952V0Z" fill="white"/>
<path d="M226.952 11.6628H223.912V18.1771H226.952V11.6628Z" fill="white"/>
<path d="M228.457 7.46888V10.5092H234.972V7.46888H228.457Z" fill="white"/>
<path d="M216.127 7.46827V10.5085H222.642V7.46827H216.127Z" fill="white"/>
<path d="M250.966 0H247.926V6.51509H250.966V0Z" fill="white"/>
<path d="M250.966 11.6628H247.926V18.1771H250.966V11.6628Z" fill="white"/>
<path d="M252.471 7.46888V10.5092H258.986V7.46888H252.471Z" fill="white"/>
<path d="M240.141 7.46827V10.5085H246.656V7.46827H240.141Z" fill="white"/>
<path d="M274.98 0H271.94V6.51509H274.98V0Z" fill="white"/>
<path d="M274.98 11.6628H271.94V18.1771H274.98V11.6628Z" fill="white"/>
<path d="M276.485 7.46888V10.5092H283V7.46888H276.485Z" fill="white"/>
<path d="M264.155 7.46827V10.5085H270.67V7.46827H264.155Z" fill="white"/>
<path d="M10.8249 23.2394H7.78467V29.7545H10.8249V23.2394Z" fill="white"/>
<path d="M10.8249 34.9022H7.78467V41.4165H10.8249V34.9022Z" fill="white"/>
<path d="M12.3296 30.7083V33.7485H18.8447V30.7083H12.3296Z" fill="white"/>
<path d="M0 30.7077L0 33.7479H6.51509V30.7077H0Z" fill="white"/>
<path d="M34.8391 23.2394H31.7988V29.7545H34.8391V23.2394Z" fill="white"/>
<path d="M34.8391 34.9022H31.7988V41.4165H34.8391V34.9022Z" fill="white"/>
<path d="M36.3438 30.7083V33.7485H42.8588V30.7083H36.3438Z" fill="white"/>
<path d="M24.0142 30.7077V33.7479H30.5293V30.7077H24.0142Z" fill="white"/>
<path d="M58.8532 23.2394H55.813V29.7545H58.8532V23.2394Z" fill="white"/>
<path d="M58.8532 34.9022H55.813V41.4165H58.8532V34.9022Z" fill="white"/>
<path d="M60.3579 30.7083V33.7485H66.873V30.7083H60.3579Z" fill="white"/>
<path d="M48.0283 30.7077V33.7479H54.5434V30.7077H48.0283Z" fill="white"/>
<path d="M82.8674 23.2394H79.8271V29.7545H82.8674V23.2394Z" fill="white"/>
<path d="M82.8674 34.9022H79.8271V41.4165H82.8674V34.9022Z" fill="white"/>
<path d="M84.3721 30.7083V33.7485H90.8872V30.7083H84.3721Z" fill="white"/>
<path d="M72.0425 30.7077V33.7479H78.5576V30.7077H72.0425Z" fill="white"/>
<path d="M106.882 23.2394H103.841V29.7545H106.882V23.2394Z" fill="white"/>
<path d="M106.882 34.9022H103.841V41.4165H106.882V34.9022Z" fill="white"/>
<path d="M108.386 30.7083V33.7485H114.901V30.7083H108.386Z" fill="white"/>
<path d="M96.0566 30.7077V33.7479H102.572V30.7077H96.0566Z" fill="white"/>
<path d="M130.896 23.2394H127.855V29.7545H130.896V23.2394Z" fill="white"/>
<path d="M130.896 34.9022H127.855V41.4165H130.896V34.9022Z" fill="white"/>
<path d="M132.4 30.7083V33.7485H138.915V30.7083H132.4Z" fill="white"/>
<path d="M120.071 30.7077V33.7479H126.586V30.7077H120.071Z" fill="white"/>
<path d="M154.91 23.2394H151.87V29.7545H154.91V23.2394Z" fill="white"/>
<path d="M154.91 34.9022H151.87V41.4165H154.91V34.9022Z" fill="white"/>
<path d="M156.415 30.7083V33.7485H162.93V30.7083H156.415Z" fill="white"/>
<path d="M144.085 30.7077V33.7479H150.6V30.7077H144.085Z" fill="white"/>
<path d="M178.924 23.2394H175.883V29.7545H178.924V23.2394Z" fill="white"/>
<path d="M178.924 34.9022H175.883V41.4165H178.924V34.9022Z" fill="white"/>
<path d="M180.428 30.7083V33.7485H186.943V30.7083H180.428Z" fill="white"/>
<path d="M168.099 30.7077V33.7479H174.614V30.7077H168.099Z" fill="white"/>
<path d="M202.938 23.2394H199.897V29.7545H202.938V23.2394Z" fill="white"/>
<path d="M202.938 34.9022H199.897V41.4165H202.938V34.9022Z" fill="white"/>
<path d="M204.442 30.7083V33.7485H210.957V30.7083H204.442Z" fill="white"/>
<path d="M192.113 30.7077V33.7479H198.628V30.7077H192.113Z" fill="white"/>
<path d="M226.952 23.2394H223.912V29.7545H226.952V23.2394Z" fill="white"/>
<path d="M226.952 34.9022H223.912V41.4165H226.952V34.9022Z" fill="white"/>
<path d="M228.457 30.7083V33.7485H234.972V30.7083H228.457Z" fill="white"/>
<path d="M216.127 30.7077V33.7479H222.642V30.7077H216.127Z" fill="white"/>
</g>
</svg>
