<svg width="139" height="343" viewBox="0 0 139 343" fill="none" xmlns="http://www.w3.org/2000/svg">
<g opacity="0.5">
<path d="M128.091 342.417H131.131V335.901H128.091V342.417Z" fill="white"/>
<path d="M128.091 330.754H131.131V324.239H128.091V330.754Z" fill="white"/>
<path d="M126.586 334.948V331.907H120.071V334.948H126.586Z" fill="white"/>
<path d="M138.915 334.948V331.908H132.4V334.948H138.915Z" fill="white"/>
<path d="M104.077 342.417H107.117V335.901H104.077V342.417Z" fill="white"/>
<path d="M104.077 330.754H107.117V324.239H104.077V330.754Z" fill="white"/>
<path d="M102.572 334.948V331.907H96.0572V334.948H102.572Z" fill="white"/>
<path d="M114.901 334.948V331.908H108.386V334.948H114.901Z" fill="white"/>
<path d="M80.0623 342.417H83.1025V335.901H80.0623V342.417Z" fill="white"/>
<path d="M80.0623 330.754H83.1025V324.239H80.0623V330.754Z" fill="white"/>
<path d="M78.5576 334.948V331.907H72.0425V334.948H78.5576Z" fill="white"/>
<path d="M90.8867 334.948V331.908H84.3716V334.948H90.8867Z" fill="white"/>
<path d="M56.0486 342.417H59.0889V335.901H56.0486V342.417Z" fill="white"/>
<path d="M56.0486 330.754H59.0889V324.239H56.0486V330.754Z" fill="white"/>
<path d="M54.5439 334.948V331.907H48.0289V334.948H54.5439Z" fill="white"/>
<path d="M66.873 334.948V331.908H60.358V334.948H66.873Z" fill="white"/>
<path d="M32.034 342.417H35.0742V335.901H32.034V342.417Z" fill="white"/>
<path d="M32.034 330.754H35.0742V324.239H32.034V330.754Z" fill="white"/>
<path d="M30.5293 334.948V331.907H24.0142V334.948H30.5293Z" fill="white"/>
<path d="M42.8584 334.948V331.908H36.3433V334.948H42.8584Z" fill="white"/>
<path d="M8.02029 342.417H11.0605V335.901H8.02029V342.417Z" fill="white"/>
<path d="M8.02029 330.754H11.0605V324.239H8.02029V330.754Z" fill="white"/>
<path d="M6.51562 334.948V331.907H0.000530243V334.948H6.51562Z" fill="white"/>
<path d="M18.8447 334.948V331.908H12.3296V334.948H18.8447Z" fill="white"/>
<path d="M128.091 319.177H131.131V312.662H128.091V319.177Z" fill="white"/>
<path d="M128.091 307.514H131.131V301H128.091V307.514Z" fill="white"/>
<path d="M126.586 311.708V308.668H120.071V311.708H126.586Z" fill="white"/>
<path d="M138.915 311.709V308.668H132.4V311.709H138.915Z" fill="white"/>
<path d="M104.077 319.177H107.117V312.662H104.077V319.177Z" fill="white"/>
<path d="M104.077 307.514H107.117V301H104.077V307.514Z" fill="white"/>
<path d="M102.572 311.708V308.668H96.0572V311.708H102.572Z" fill="white"/>
<path d="M114.901 311.709V308.668H108.386V311.709H114.901Z" fill="white"/>
<path d="M80.0623 319.177H83.1025V312.662H80.0623V319.177Z" fill="white"/>
<path d="M80.0623 307.514H83.1025V301H80.0623V307.514Z" fill="white"/>
<path d="M78.5576 311.708V308.668H72.0425V311.708H78.5576Z" fill="white"/>
<path d="M90.8867 311.709V308.668H84.3716V311.709H90.8867Z" fill="white"/>
<path d="M56.0486 319.177H59.0889V312.662H56.0486V319.177Z" fill="white"/>
<path d="M56.0486 307.514H59.0889V301H56.0486V307.514Z" fill="white"/>
<path d="M54.5439 311.708V308.668H48.0289V311.708H54.5439Z" fill="white"/>
<path d="M66.873 311.709V308.668H60.358V311.709H66.873Z" fill="white"/>
</g>
<g opacity="0.5">
<path d="M128.091 0H131.131V6.51509H128.091V0Z" fill="white"/>
<path d="M128.091 11.6628H131.131V18.1771H128.091V11.6628Z" fill="white"/>
<path d="M126.586 7.46876V10.509H120.071V7.46876H126.586Z" fill="white"/>
<path d="M138.915 7.46827V10.5085H132.4V7.46827H138.915Z" fill="white"/>
<path d="M104.077 0H107.117V6.51509H104.077V0Z" fill="white"/>
<path d="M104.077 11.6628H107.117V18.1771H104.077V11.6628Z" fill="white"/>
<path d="M102.572 7.46876V10.509H96.0572V7.46876H102.572Z" fill="white"/>
<path d="M114.901 7.46827V10.5085H108.386V7.46827H114.901Z" fill="white"/>
<path d="M80.0623 0H83.1025V6.51509H80.0623V0Z" fill="white"/>
<path d="M80.0623 11.6628H83.1025V18.1771H80.0623V11.6628Z" fill="white"/>
<path d="M78.5576 7.46876V10.509H72.0425V7.46876H78.5576Z" fill="white"/>
<path d="M90.8867 7.46827V10.5085H84.3716V7.46827H90.8867Z" fill="white"/>
<path d="M56.0486 0H59.0889V6.51509H56.0486V0Z" fill="white"/>
<path d="M56.0486 11.6628H59.0889V18.1771H56.0486V11.6628Z" fill="white"/>
<path d="M54.5439 7.46876V10.509H48.0289V7.46876H54.5439Z" fill="white"/>
<path d="M66.873 7.46827V10.5085H60.358V7.46827H66.873Z" fill="white"/>
<path d="M32.034 0H35.0742V6.51509H32.034V0Z" fill="white"/>
<path d="M32.034 11.6628H35.0742V18.1771H32.034V11.6628Z" fill="white"/>
<path d="M30.5293 7.46876V10.509H24.0142V7.46876H30.5293Z" fill="white"/>
<path d="M42.8584 7.46827V10.5085H36.3433V7.46827H42.8584Z" fill="white"/>
<path d="M8.02029 0H11.0605V6.51509H8.02029V0Z" fill="white"/>
<path d="M8.02029 11.6628H11.0605V18.1771H8.02029V11.6628Z" fill="white"/>
<path d="M6.51562 7.46876V10.509H0.000530243V7.46876H6.51562Z" fill="white"/>
<path d="M18.8447 7.46827V10.5085H12.3296V7.46827H18.8447Z" fill="white"/>
<path d="M128.091 23.2395H131.131V29.7546H128.091V23.2395Z" fill="white"/>
<path d="M128.091 34.9023H131.131V41.4166H128.091V34.9023Z" fill="white"/>
<path d="M126.586 30.7083V33.7485H120.071V30.7083H126.586Z" fill="white"/>
<path d="M138.915 30.7078V33.748H132.4V30.7078H138.915Z" fill="white"/>
<path d="M104.077 23.2395H107.117V29.7546H104.077V23.2395Z" fill="white"/>
<path d="M104.077 34.9023H107.117V41.4166H104.077V34.9023Z" fill="white"/>
<path d="M102.572 30.7083V33.7485H96.0572V30.7083H102.572Z" fill="white"/>
<path d="M114.901 30.7078V33.748H108.386V30.7078H114.901Z" fill="white"/>
<path d="M80.0623 23.2395H83.1025V29.7546H80.0623V23.2395Z" fill="white"/>
<path d="M80.0623 34.9023H83.1025V41.4166H80.0623V34.9023Z" fill="white"/>
<path d="M78.5576 30.7083V33.7485H72.0425V30.7083H78.5576Z" fill="white"/>
<path d="M90.8867 30.7078V33.748H84.3716V30.7078H90.8867Z" fill="white"/>
<path d="M56.0486 23.2395H59.0889V29.7546H56.0486V23.2395Z" fill="white"/>
<path d="M56.0486 34.9023H59.0889V41.4166H56.0486V34.9023Z" fill="white"/>
<path d="M54.5439 30.7083V33.7485H48.0289V30.7083H54.5439Z" fill="white"/>
<path d="M66.873 30.7078V33.748H60.358V30.7078H66.873Z" fill="white"/>
</g>
</svg>
