<svg width="40" height="40" viewBox="0 0 40 40" fill="none" xmlns="http://www.w3.org/2000/svg">
<rect width="40" height="40" rx="12" fill="#EBF4FF"/>
<g clip-path="url(#clip0_197_3656)">
<path d="M20 10C22.6522 10 25.1957 11.0536 27.0711 12.9289C28.9464 14.8043 30 17.3478 30 20C30 22.6522 28.9464 25.1957 27.0711 27.0711C25.1957 28.9464 22.6522 30 20 30C17.3478 30 14.8043 28.9464 12.9289 27.0711C11.0536 25.1957 10 22.6522 10 20C10 17.3478 11.0536 14.8043 12.9289 12.9289C14.8043 11.0536 17.3478 10 20 10ZM18.7543 21.9729L16.5329 19.75C16.4532 19.6704 16.3587 19.6072 16.2546 19.5641C16.1506 19.521 16.0391 19.4988 15.9264 19.4988C15.8138 19.4988 15.7023 19.521 15.5982 19.5641C15.4942 19.6072 15.3996 19.6704 15.32 19.75C15.1592 19.9108 15.0688 20.129 15.0688 20.3564C15.0688 20.5839 15.1592 20.802 15.32 20.9629L18.1486 23.7914C18.228 23.8715 18.3225 23.935 18.4265 23.9784C18.5306 24.0217 18.6422 24.044 18.755 24.044C18.8678 24.044 18.9794 24.0217 19.0835 23.9784C19.1875 23.935 19.282 23.8715 19.3614 23.7914L25.2186 17.9329C25.2993 17.8536 25.3635 17.759 25.4075 17.6548C25.4515 17.5506 25.4744 17.4386 25.4749 17.3255C25.4754 17.2123 25.4536 17.1002 25.4105 16.9956C25.3675 16.8909 25.3042 16.7958 25.2242 16.7158C25.1443 16.6357 25.0493 16.5723 24.9447 16.5291C24.8401 16.486 24.728 16.464 24.6148 16.4644C24.5017 16.4648 24.3897 16.4876 24.2854 16.5314C24.1811 16.5753 24.0865 16.6394 24.0071 16.72L18.7543 21.9729Z" fill="#308DFF"/>
</g>
<defs>
<clipPath id="clip0_197_3656">
<rect width="20" height="20" fill="white" transform="translate(10 10)"/>
</clipPath>
</defs>
</svg>
