<svg width="40" height="40" viewBox="0 0 40 40" fill="none" xmlns="http://www.w3.org/2000/svg">
<rect width="40" height="40" rx="12" fill="#F3F3F3"/>
<path d="M20.9386 11V16.421C20.9386 16.9003 21.129 17.3599 21.4678 17.6988C21.8067 18.0377 22.2663 18.2281 22.7456 18.2281H28.1666V27.2631C28.1666 27.7424 27.9762 28.202 27.6374 28.5409C27.2985 28.8798 26.8389 29.0701 26.3596 29.0701H20.2067C21.1419 28.0967 21.7131 26.8308 21.8244 25.4855C21.9356 24.1403 21.58 22.7978 20.8175 21.6839C20.0549 20.5701 18.9319 19.753 17.6375 19.3701C16.3431 18.9871 14.9563 19.0618 13.7105 19.5815V12.807C13.7105 12.3278 13.9009 11.8681 14.2398 11.5293C14.5787 11.1904 15.0383 11 15.5175 11H20.9386ZM22.2938 11.4518V16.421C22.2938 16.5409 22.3414 16.6558 22.4261 16.7405C22.5109 16.8252 22.6258 16.8728 22.7456 16.8728H27.7149L22.2938 11.4518ZM20.9386 25.0044C20.9386 25.6569 20.81 26.3031 20.5603 26.906C20.3106 27.5089 19.9445 28.0567 19.4831 28.5182C19.0217 28.9796 18.4739 29.3456 17.871 29.5954C17.268 29.8451 16.6219 29.9736 15.9693 29.9736C15.3167 29.9736 14.6705 29.8451 14.0676 29.5954C13.4647 29.3456 12.9169 28.9796 12.4555 28.5182C11.994 28.0567 11.628 27.5089 11.3783 26.906C11.1285 26.3031 11 25.6569 11 25.0044C11 23.6864 11.5235 22.4225 12.4555 21.4905C13.3874 20.5586 14.6513 20.0351 15.9693 20.0351C17.2872 20.0351 18.5512 20.5586 19.4831 21.4905C20.415 22.4225 20.9386 23.6864 20.9386 25.0044ZM12.3553 25.0044C12.3553 25.7579 12.5857 26.4572 12.9796 27.0354L18.0004 22.0147C17.457 21.6455 16.8234 21.4314 16.1675 21.3954C15.5116 21.3593 14.8583 21.5027 14.2778 21.8102C13.6973 22.1176 13.2116 22.5774 12.8729 23.1402C12.5341 23.703 12.3552 24.3475 12.3553 25.0044ZM15.9693 28.6184C16.6262 28.6185 17.2706 28.4395 17.8334 28.1008C18.3962 27.762 18.856 27.2763 19.1635 26.6958C19.4709 26.1153 19.6143 25.462 19.5783 24.8061C19.5423 24.1503 19.3282 23.5166 18.959 22.9733L13.9382 27.9941C14.5374 28.401 15.245 28.6185 15.9693 28.6184Z" fill="#848484"/>
</svg>
