<svg width="40" height="40" viewBox="0 0 40 40" fill="none" xmlns="http://www.w3.org/2000/svg">
<rect width="40" height="40" rx="12" fill="#FFEDEB"/>
<g clip-path="url(#clip0_197_3664)">
<path d="M12.9298 27.0698C11.9747 26.1474 11.2129 25.0439 10.6888 23.8239C10.1647 22.6038 9.88887 21.2916 9.87733 19.9638C9.86579 18.6361 10.1188 17.3193 10.6216 16.0903C11.1244 14.8613 11.867 13.7448 12.8059 12.8059C13.7448 11.867 14.8613 11.1244 16.0903 10.6216C17.3193 10.1188 18.6361 9.86579 19.9638 9.87733C21.2916 9.88887 22.6038 10.1647 23.8239 10.6888C25.0439 11.2129 26.1474 11.9747 27.0698 12.9298C28.8914 14.8159 29.8994 17.3419 29.8766 19.9638C29.8538 22.5858 28.8021 25.0939 26.948 26.948C25.0939 28.8021 22.5858 29.8538 19.9638 29.8766C17.3419 29.8994 14.8159 28.8914 12.9298 27.0698ZM18.9998 14.9998V20.9998H20.9998V14.9998H18.9998ZM18.9998 22.9998V24.9998H20.9998V22.9998H18.9998Z" fill="#FF5B49"/>
</g>
<defs>
<clipPath id="clip0_197_3664">
<rect width="20" height="20" fill="white" transform="translate(10 10)"/>
</clipPath>
</defs>
</svg>
